<svg xmlns="http://www.w3.org/2000/svg" version="1.1" width="256" height="256">
<rect x="0" y="0" width="256" height="256" fill="#a1833b" />
<g transform="scale(1.000000) translate(0.5 0.5)">
<ellipse fill="#000002" fill-opacity="0.501961" cx="168" cy="124" rx="44" ry="44" />
<ellipse fill="#c7d8e8" fill-opacity="0.501961" cx="110" cy="211" rx="43" ry="43" />
<ellipse fill="#ffff27" fill-opacity="0.501961" cx="16" cy="52" rx="66" ry="66" />
<ellipse fill="#551d0b" fill-opacity="0.501961" cx="172" cy="204" rx="41" ry="41" />
<ellipse fill="#ffff00" fill-opacity="0.501961" cx="210" cy="30" rx="34" ry="34" />
<ellipse fill="#f5ccdc" fill-opacity="0.501961" cx="129" cy="51" rx="30" ry="30" />
<ellipse fill="#d0fcff" fill-opacity="0.501961" cx="113" cy="163" rx="23" ry="23" />
<ellipse fill="#8d4700" fill-opacity="0.501961" cx="52" cy="209" rx="40" ry="40" />
<ellipse fill="#000000" fill-opacity="0.501961" cx="164" cy="71" rx="18" ry="18" />
<ellipse fill="#464e00" fill-opacity="0.501961" cx="255" cy="109" rx="50" ry="50" />
<ellipse fill="#fffe46" fill-opacity="0.501961" cx="78" cy="0" rx="28" ry="28" />
<ellipse fill="#eeb500" fill-opacity="0.501961" cx="28" cy="101" rx="40" ry="40" />
<ellipse fill="#05000c" fill-opacity="0.501961" cx="82" cy="111" rx="16" ry="16" />
<ellipse fill="#9bd3ff" fill-opacity="0.501961" cx="109" cy="239" rx="26" ry="26" />
<ellipse fill="#d5a3a2" fill-opacity="0.501961" cx="116" cy="78" rx="31" ry="31" />
<ellipse fill="#ffd455" fill-opacity="0.501961" cx="28" cy="21" rx="58" ry="58" />
<ellipse fill="#000000" fill-opacity="0.501961" cx="165" cy="106" rx="25" ry="25" />
<ellipse fill="#431600" fill-opacity="0.501961" cx="40" cy="255" rx="30" ry="30" />
<ellipse fill="#d8a140" fill-opacity="0.501961" cx="215" cy="112" rx="22" ry="22" />
<ellipse fill="#403042" fill-opacity="0.501961" cx="106" cy="34" rx="19" ry="19" />
<ellipse fill="#e1c66f" fill-opacity="0.501961" cx="245" cy="190" rx="29" ry="29" />
<ellipse fill="#bbe6ff" fill-opacity="0.501961" cx="112" cy="200" rx="22" ry="22" />
<ellipse fill="#866200" fill-opacity="0.501961" cx="0" cy="145" rx="45" ry="45" />
<ellipse fill="#1b3953" fill-opacity="0.501961" cx="253" cy="153" rx="28" ry="28" />
<ellipse fill="#422323" fill-opacity="0.501961" cx="182" cy="175" rx="32" ry="32" />
<ellipse fill="#ffff13" fill-opacity="0.501961" cx="192" cy="4" rx="21" ry="21" />
<ellipse fill="#fff700" fill-opacity="0.501961" cx="214" cy="55" rx="20" ry="20" />
<ellipse fill="#973200" fill-opacity="0.501961" cx="228" cy="234" rx="20" ry="20" />
<ellipse fill="#f7a81c" fill-opacity="0.501961" cx="145" cy="229" rx="15" ry="15" />
<ellipse fill="#d4d3fb" fill-opacity="0.501961" cx="84" cy="151" rx="11" ry="11" />
<ellipse fill="#673152" fill-opacity="0.501961" cx="173" cy="43" rx="18" ry="18" />
<ellipse fill="#ffe3c2" fill-opacity="0.501961" cx="134" cy="36" rx="18" ry="18" />
<ellipse fill="#3c2446" fill-opacity="0.501961" cx="139" cy="0" rx="23" ry="23" />
<ellipse fill="#dd9539" fill-opacity="0.501961" cx="144" cy="154" rx="13" ry="13" />
<ellipse fill="#818000" fill-opacity="0.501961" cx="255" cy="38" rx="32" ry="32" />
<ellipse fill="#543a33" fill-opacity="0.501961" cx="85" cy="78" rx="18" ry="18" />
<ellipse fill="#cd9533" fill-opacity="0.501961" cx="67" cy="201" rx="25" ry="25" />
<ellipse fill="#fed700" fill-opacity="0.501961" cx="43" cy="99" rx="27" ry="27" />
<ellipse fill="#491e04" fill-opacity="0.501961" cx="141" cy="64" rx="8" ry="8" />
<ellipse fill="#ed9a23" fill-opacity="0.501961" cx="221" cy="196" rx="21" ry="21" />
<ellipse fill="#89a2a9" fill-opacity="0.501961" cx="250" cy="171" rx="17" ry="17" />
<ellipse fill="#341404" fill-opacity="0.501961" cx="121" cy="48" rx="7" ry="7" />
<ellipse fill="#c4dfff" fill-opacity="0.501961" cx="111" cy="169" rx="19" ry="19" />
<ellipse fill="#8b4b04" fill-opacity="0.501961" cx="77" cy="179" rx="16" ry="16" />
<ellipse fill="#fff254" fill-opacity="0.501961" cx="0" cy="242" rx="14" ry="14" />
<ellipse fill="#df900b" fill-opacity="0.501961" cx="143" cy="203" rx="13" ry="13" />
<ellipse fill="#222e08" fill-opacity="0.501961" cx="0" cy="165" rx="17" ry="17" />
<ellipse fill="#9f6d65" fill-opacity="0.501961" cx="103" cy="128" rx="23" ry="23" />
<ellipse fill="#ffff2e" fill-opacity="0.501961" cx="202" cy="31" rx="17" ry="17" />
<ellipse fill="#e4e600" fill-opacity="0.501961" cx="0" cy="216" rx="16" ry="16" />
<ellipse fill="#e3b000" fill-opacity="0.501961" cx="71" cy="25" rx="17" ry="17" />
<ellipse fill="#1b0920" fill-opacity="0.501961" cx="116" cy="14" rx="10" ry="10" />
<ellipse fill="#dd9a45" fill-opacity="0.501961" cx="40" cy="157" rx="18" ry="18" />
<ellipse fill="#e5cac9" fill-opacity="0.501961" cx="99" cy="55" rx="11" ry="11" />
<ellipse fill="#080001" fill-opacity="0.501961" cx="87" cy="43" rx="8" ry="8" />
<ellipse fill="#6d5200" fill-opacity="0.501961" cx="1" cy="98" rx="14" ry="14" />
<ellipse fill="#070000" fill-opacity="0.501961" cx="167" cy="82" rx="16" ry="16" />
<ellipse fill="#fbbe6c" fill-opacity="0.501961" cx="21" cy="0" rx="45" ry="45" />
<ellipse fill="#090000" fill-opacity="0.501961" cx="80" cy="93" rx="9" ry="9" />
<ellipse fill="#b07865" fill-opacity="0.501961" cx="201" cy="95" rx="14" ry="14" />
<ellipse fill="#ffcd9a" fill-opacity="0.501961" cx="141" cy="78" rx="11" ry="11" />
<ellipse fill="#280d0d" fill-opacity="0.501961" cx="162" cy="119" rx="31" ry="31" />
<ellipse fill="#180021" fill-opacity="0.501961" cx="85" cy="56" rx="7" ry="7" />
<ellipse fill="#b88f85" fill-opacity="0.501961" cx="105" cy="85" rx="20" ry="20" />
<ellipse fill="#1f1c00" fill-opacity="0.501961" cx="242" cy="139" rx="14" ry="14" />
<ellipse fill="#af7473" fill-opacity="0.501961" cx="186" cy="61" rx="12" ry="12" />
<ellipse fill="#090000" fill-opacity="0.501961" cx="165" cy="51" rx="8" ry="8" />
<ellipse fill="#d58f1f" fill-opacity="0.501961" cx="142" cy="182" rx="10" ry="10" />
<ellipse fill="#6c3c44" fill-opacity="0.501961" cx="165" cy="22" rx="14" ry="14" />
<ellipse fill="#e0a636" fill-opacity="0.501961" cx="200" cy="242" rx="14" ry="14" />
<ellipse fill="#1b0100" fill-opacity="0.501961" cx="76" cy="123" rx="9" ry="9" />
<ellipse fill="#692416" fill-opacity="0.501961" cx="175" cy="252" rx="14" ry="14" />
<ellipse fill="#586100" fill-opacity="0.501961" cx="253" cy="80" rx="30" ry="30" />
<ellipse fill="#fff7cb" fill-opacity="0.501961" cx="127" cy="68" rx="10" ry="10" />
<ellipse fill="#0f0105" fill-opacity="0.501961" cx="101" cy="27" rx="8" ry="8" />
<ellipse fill="#fff66a" fill-opacity="0.501961" cx="97" cy="0" rx="14" ry="14" />
<ellipse fill="#49322a" fill-opacity="0.501961" cx="178" cy="198" rx="26" ry="26" />
<ellipse fill="#ffec2c" fill-opacity="0.501961" cx="56" cy="56" rx="22" ry="22" />
<ellipse fill="#bb8120" fill-opacity="0.501961" cx="75" cy="233" rx="13" ry="13" />
<ellipse fill="#eca22e" fill-opacity="0.501961" cx="148" cy="246" rx="14" ry="14" />
<ellipse fill="#5d3829" fill-opacity="0.501961" cx="183" cy="145" rx="27" ry="27" />
<ellipse fill="#744711" fill-opacity="0.501961" cx="37" cy="226" rx="25" ry="25" />
<ellipse fill="#a3b3d4" fill-opacity="0.501961" cx="129" cy="147" rx="7" ry="7" />
<ellipse fill="#ffbc32" fill-opacity="0.501961" cx="253" cy="220" rx="14" ry="14" />
<ellipse fill="#ffe3bb" fill-opacity="0.501961" cx="144" cy="40" rx="14" ry="14" />
<ellipse fill="#be8163" fill-opacity="0.501961" cx="211" cy="137" rx="10" ry="10" />
<ellipse fill="#867e00" fill-opacity="0.501961" cx="234" cy="11" rx="15" ry="15" />
<ellipse fill="#fff200" fill-opacity="0.501961" cx="185" cy="0" rx="18" ry="18" />
<ellipse fill="#c3903a" fill-opacity="0.501961" cx="73" cy="195" rx="20" ry="20" />
<ellipse fill="#e5bd03" fill-opacity="0.501961" cx="58" cy="86" rx="16" ry="16" />
<ellipse fill="#b36e1f" fill-opacity="0.501961" cx="214" cy="216" rx="19" ry="19" />
<ellipse fill="#733a25" fill-opacity="0.501961" cx="116" cy="80" rx="7" ry="7" />
<ellipse fill="#bc8d72" fill-opacity="0.501961" cx="176" cy="31" rx="11" ry="11" />
<ellipse fill="#b09c00" fill-opacity="0.501961" cx="231" cy="111" rx="14" ry="14" />
<ellipse fill="#ffc35c" fill-opacity="0.501961" cx="221" cy="168" rx="9" ry="9" />
<ellipse fill="#efb700" fill-opacity="0.501961" cx="3" cy="136" rx="10" ry="10" />
<ellipse fill="#6a93ac" fill-opacity="0.501961" cx="255" cy="8" rx="9" ry="9" />
<ellipse fill="#2d2d00" fill-opacity="0.501961" cx="26" cy="138" rx="7" ry="7" />
<ellipse fill="#f2bc98" fill-opacity="0.501961" cx="112" cy="99" rx="12" ry="12" />
<ellipse fill="#530d00" fill-opacity="0.501961" cx="234" cy="250" rx="8" ry="8" />
<ellipse fill="#ffd132" fill-opacity="0.501961" cx="81" cy="11" rx="18" ry="18" />
<ellipse fill="#edc7a9" fill-opacity="0.501961" cx="132" cy="31" rx="16" ry="16" />
<ellipse fill="#3f1704" fill-opacity="0.501961" cx="104" cy="114" rx="6" ry="6" />
<ellipse fill="#7091a7" fill-opacity="0.501961" cx="126" cy="248" rx="11" ry="11" />
<ellipse fill="#c57846" fill-opacity="0.501961" cx="133" cy="92" rx="11" ry="11" />
<ellipse fill="#fae600" fill-opacity="0.501961" cx="215" cy="43" rx="17" ry="17" />
<ellipse fill="#b5cfd9" fill-opacity="0.501961" cx="108" cy="217" rx="20" ry="20" />
<ellipse fill="#ffd751" fill-opacity="0.501961" cx="239" cy="205" rx="11" ry="11" />
<ellipse fill="#0c0305" fill-opacity="0.501961" cx="92" cy="36" rx="7" ry="7" />
<ellipse fill="#1a0000" fill-opacity="0.501961" cx="132" cy="116" rx="10" ry="10" />
<ellipse fill="#281000" fill-opacity="0.501961" cx="163" cy="38" rx="6" ry="6" />
<ellipse fill="#0d090a" fill-opacity="0.501961" cx="64" cy="173" rx="5" ry="5" />
<ellipse fill="#a6886e" fill-opacity="0.501961" cx="94" cy="134" rx="17" ry="17" />
<ellipse fill="#e5c2a6" fill-opacity="0.501961" cx="0" cy="14" rx="15" ry="15" />
<ellipse fill="#dec400" fill-opacity="0.501961" cx="217" cy="62" rx="17" ry="17" />
<ellipse fill="#0c0002" fill-opacity="0.501961" cx="165" cy="68" rx="10" ry="10" />
<ellipse fill="#825415" fill-opacity="0.501961" cx="24" cy="178" rx="19" ry="19" />
<ellipse fill="#ffd84c" fill-opacity="0.501961" cx="24" cy="48" rx="26" ry="26" />
<ellipse fill="#210809" fill-opacity="0.501961" cx="154" cy="22" rx="6" ry="6" />
<ellipse fill="#d6dfde" fill-opacity="0.501961" cx="80" cy="155" rx="8" ry="8" />
<ellipse fill="#c59b00" fill-opacity="0.501961" cx="67" cy="27" rx="11" ry="11" />
<ellipse fill="#1b0702" fill-opacity="0.501961" cx="80" cy="79" rx="6" ry="6" />
<ellipse fill="#ffecd3" fill-opacity="0.501961" cx="113" cy="35" rx="4" ry="4" />
<ellipse fill="#574c0a" fill-opacity="0.501961" cx="214" cy="239" rx="8" ry="8" />
<ellipse fill="#c66d03" fill-opacity="0.501961" cx="255" cy="247" rx="17" ry="17" />
<ellipse fill="#451700" fill-opacity="0.501961" cx="31" cy="251" rx="12" ry="12" />
<ellipse fill="#ea9f67" fill-opacity="0.501961" cx="154" cy="61" rx="5" ry="5" />
<ellipse fill="#c59248" fill-opacity="0.501961" cx="22" cy="158" rx="10" ry="10" />
<ellipse fill="#000000" fill-opacity="0.501961" cx="158" cy="103" rx="15" ry="15" />
<ellipse fill="#b07529" fill-opacity="0.501961" cx="142" cy="166" rx="10" ry="10" />
<ellipse fill="#a9c6d2" fill-opacity="0.501961" cx="106" cy="255" rx="24" ry="24" />
<ellipse fill="#813800" fill-opacity="0.501961" cx="87" cy="164" rx="5" ry="5" />
<ellipse fill="#d3bbb5" fill-opacity="0.501961" cx="99" cy="48" rx="7" ry="7" />
<ellipse fill="#b08169" fill-opacity="0.501961" cx="182" cy="47" rx="11" ry="11" />
<ellipse fill="#1c0500" fill-opacity="0.501961" cx="76" cy="109" rx="9" ry="9" />
<ellipse fill="#ca8d31" fill-opacity="0.501961" cx="52" cy="152" rx="21" ry="21" />
<ellipse fill="#5f403a" fill-opacity="0.501961" cx="174" cy="226" rx="17" ry="17" />
<ellipse fill="#a48679" fill-opacity="0.501961" cx="100" cy="80" rx="16" ry="16" />
<ellipse fill="#fcc179" fill-opacity="0.501961" cx="218" cy="157" rx="6" ry="6" />
<ellipse fill="#382524" fill-opacity="0.501961" cx="110" cy="17" rx="9" ry="9" />
<ellipse fill="#a19400" fill-opacity="0.501961" cx="255" cy="47" rx="22" ry="22" />
<ellipse fill="#82a4b9" fill-opacity="0.501961" cx="125" cy="228" rx="10" ry="10" />
<ellipse fill="#e3b100" fill-opacity="0.501961" cx="21" cy="112" rx="14" ry="14" />
<ellipse fill="#c2d9e6" fill-opacity="0.501961" cx="113" cy="180" rx="19" ry="19" />
<ellipse fill="#404508" fill-opacity="0.501961" cx="252" cy="93" rx="17" ry="17" />
<ellipse fill="#885d48" fill-opacity="0.501961" cx="122" cy="137" rx="10" ry="10" />
<ellipse fill="#eaa12f" fill-opacity="0.501961" cx="138" cy="143" rx="5" ry="5" />
<ellipse fill="#271812" fill-opacity="0.501961" cx="55" cy="177" rx="5" ry="5" />
<ellipse fill="#b35e00" fill-opacity="0.501961" cx="232" cy="229" rx="15" ry="15" />
<ellipse fill="#feff51" fill-opacity="0.501961" cx="193" cy="27" rx="10" ry="10" />
<ellipse fill="#291a1b" fill-opacity="0.501961" cx="190" cy="121" rx="9" ry="9" />
<ellipse fill="#a37453" fill-opacity="0.501961" cx="211" cy="118" rx="14" ry="14" />
<ellipse fill="#fbe907" fill-opacity="0.501961" cx="75" cy="37" rx="8" ry="8" />
<ellipse fill="#fff200" fill-opacity="0.501961" cx="51" cy="126" rx="7" ry="7" />
<ellipse fill="#99592c" fill-opacity="0.501961" cx="208" cy="171" rx="11" ry="11" />
<ellipse fill="#20080e" fill-opacity="0.501961" cx="82" cy="64" rx="5" ry="5" />
<ellipse fill="#59604d" fill-opacity="0.501961" cx="239" cy="177" rx="6" ry="6" />
<ellipse fill="#b98d00" fill-opacity="0.501961" cx="69" cy="75" rx="8" ry="8" />
<ellipse fill="#47372f" fill-opacity="0.501961" cx="124" cy="10" rx="11" ry="11" />
<ellipse fill="#ce902b" fill-opacity="0.501961" cx="144" cy="223" rx="13" ry="13" />
<ellipse fill="#7f5138" fill-opacity="0.501961" cx="141" cy="63" rx="9" ry="9" />
<ellipse fill="#e2a946" fill-opacity="0.501961" cx="48" cy="13" rx="18" ry="18" />
<ellipse fill="#1d0000" fill-opacity="0.501961" cx="71" cy="169" rx="4" ry="4" />
<ellipse fill="#0e0000" fill-opacity="0.501961" cx="159" cy="29" rx="4" ry="4" />
<ellipse fill="#b0a978" fill-opacity="0.501961" cx="217" cy="255" rx="9" ry="9" />
<ellipse fill="#574034" fill-opacity="0.501961" cx="113" cy="48" rx="8" ry="8" />
<ellipse fill="#d3bf00" fill-opacity="0.501961" cx="0" cy="225" rx="14" ry="14" />
<ellipse fill="#c1c11e" fill-opacity="0.501961" cx="2" cy="203" rx="13" ry="13" />
<ellipse fill="#dfedf6" fill-opacity="0.501961" cx="102" cy="159" rx="9" ry="9" />
<ellipse fill="#a1c3dd" fill-opacity="0.501961" cx="122" cy="158" rx="11" ry="11" />
<ellipse fill="#a5785a" fill-opacity="0.501961" cx="198" cy="86" rx="12" ry="12" />
<ellipse fill="#916c63" fill-opacity="0.501961" cx="82" cy="141" rx="10" ry="10" />
<ellipse fill="#836a3a" fill-opacity="0.501961" cx="50" cy="234" rx="11" ry="11" />
<ellipse fill="#984d4a" fill-opacity="0.501961" cx="106" cy="95" rx="5" ry="5" />
<ellipse fill="#af854d" fill-opacity="0.501961" cx="202" cy="225" rx="10" ry="10" />
<ellipse fill="#fff74b" fill-opacity="0.501961" cx="110" cy="0" rx="6" ry="6" />
<ellipse fill="#797100" fill-opacity="0.501961" cx="212" cy="79" rx="7" ry="7" />
<ellipse fill="#fff2ce" fill-opacity="0.501961" cx="140" cy="78" rx="6" ry="6" />
<ellipse fill="#ffd486" fill-opacity="0.501961" cx="2" cy="249" rx="8" ry="8" />
<ellipse fill="#25343e" fill-opacity="0.501961" cx="57" cy="238" rx="7" ry="7" />
<ellipse fill="#4b3e18" fill-opacity="0.501961" cx="229" cy="150" rx="8" ry="8" />
<ellipse fill="#511200" fill-opacity="0.501961" cx="78" cy="169" rx="5" ry="5" />
<ellipse fill="#2d5109" fill-opacity="0.501961" cx="255" cy="206" rx="4" ry="4" />
<ellipse fill="#867400" fill-opacity="0.501961" cx="248" cy="121" rx="10" ry="10" />
<ellipse fill="#eba62e" fill-opacity="0.501961" cx="13" cy="61" rx="11" ry="11" />
<ellipse fill="#b78634" fill-opacity="0.501961" cx="67" cy="211" rx="24" ry="24" />
<ellipse fill="#99a6a1" fill-opacity="0.501961" cx="250" cy="171" rx="11" ry="11" />
<ellipse fill="#1f0f06" fill-opacity="0.501961" cx="157" cy="172" rx="7" ry="7" />
<ellipse fill="#ffe7ab" fill-opacity="0.501961" cx="126" cy="85" rx="4" ry="4" />
<ellipse fill="#a36d22" fill-opacity="0.501961" cx="74" cy="243" rx="12" ry="12" />
<ellipse fill="#2e1420" fill-opacity="0.501961" cx="74" cy="133" rx="4" ry="4" />
<ellipse fill="#63570d" fill-opacity="0.501961" cx="225" cy="128" rx="8" ry="8" />
<ellipse fill="#f6c145" fill-opacity="0.501961" cx="203" cy="248" rx="8" ry="8" />
<ellipse fill="#fdcb47" fill-opacity="0.501961" cx="230" cy="188" rx="9" ry="9" />
<ellipse fill="#f7fb1b" fill-opacity="0.501961" cx="206" cy="41" rx="16" ry="16" />
<ellipse fill="#1b0105" fill-opacity="0.501961" cx="80" cy="71" rx="4" ry="4" />
<ellipse fill="#d6c600" fill-opacity="0.501961" cx="220" cy="19" rx="12" ry="12" />
<ellipse fill="#cc9a3c" fill-opacity="0.501961" cx="147" cy="158" rx="8" ry="8" />
<ellipse fill="#966652" fill-opacity="0.501961" cx="165" cy="15" rx="10" ry="10" />
<ellipse fill="#a3a300" fill-opacity="0.501961" cx="223" cy="96" rx="8" ry="8" />
<ellipse fill="#fff7cc" fill-opacity="0.501961" cx="109" cy="61" rx="5" ry="5" />
<ellipse fill="#ffe725" fill-opacity="0.501961" cx="54" cy="112" rx="9" ry="9" />
<ellipse fill="#deb25a" fill-opacity="0.501961" cx="35" cy="149" rx="8" ry="8" />
<ellipse fill="#e6c0ac" fill-opacity="0.501961" cx="97" cy="100" rx="5" ry="5" />
<ellipse fill="#a06e58" fill-opacity="0.501961" cx="188" cy="69" rx="12" ry="12" />
<ellipse fill="#5b4c00" fill-opacity="0.501961" cx="35" cy="134" rx="6" ry="6" />
<ellipse fill="#f8c584" fill-opacity="0.501961" cx="151" cy="51" rx="8" ry="8" />
<ellipse fill="#b9968c" fill-opacity="0.501961" cx="94" cy="62" rx="6" ry="6" />
<ellipse fill="#bc8632" fill-opacity="0.501961" cx="141" cy="187" rx="10" ry="10" />
<ellipse fill="#fff600" fill-opacity="0.501961" cx="170" cy="0" rx="6" ry="6" />
<ellipse fill="#4a191b" fill-opacity="0.501961" cx="126" cy="92" rx="3" ry="3" />
<ellipse fill="#b2cbd4" fill-opacity="0.501961" cx="111" cy="207" rx="22" ry="22" />
<ellipse fill="#6c3502" fill-opacity="0.501961" cx="26" cy="219" rx="11" ry="11" />
<ellipse fill="#7c533c" fill-opacity="0.501961" cx="100" cy="73" rx="6" ry="6" />
<ellipse fill="#687d52" fill-opacity="0.501961" cx="244" cy="188" rx="5" ry="5" />
<ellipse fill="#9b612d" fill-opacity="0.501961" cx="208" cy="185" rx="10" ry="10" />
<ellipse fill="#74482e" fill-opacity="0.501961" cx="200" cy="161" rx="14" ry="14" />
<ellipse fill="#445114" fill-opacity="0.501961" cx="1" cy="175" rx="13" ry="13" />
<ellipse fill="#282b00" fill-opacity="0.501961" cx="20" cy="145" rx="4" ry="4" />
<ellipse fill="#995a2b" fill-opacity="0.501961" cx="187" cy="240" rx="9" ry="9" />
<ellipse fill="#ffe268" fill-opacity="0.501961" cx="227" cy="177" rx="6" ry="6" />
<ellipse fill="#ecc752" fill-opacity="0.501961" cx="209" cy="5" rx="9" ry="9" />
<ellipse fill="#b07827" fill-opacity="0.501961" cx="77" cy="186" rx="16" ry="16" />
<ellipse fill="#d19935" fill-opacity="0.501961" cx="146" cy="240" rx="13" ry="13" />
<ellipse fill="#271a0c" fill-opacity="0.501961" cx="185" cy="176" rx="8" ry="8" />
<ellipse fill="#5f3226" fill-opacity="0.501961" cx="133" cy="90" rx="4" ry="4" />
<ellipse fill="#c49300" fill-opacity="0.501961" cx="15" cy="89" rx="9" ry="9" />
<ellipse fill="#976121" fill-opacity="0.501961" cx="59" cy="144" rx="9" ry="9" />
<ellipse fill="#dcc1ba" fill-opacity="0.501961" cx="110" cy="90" rx="6" ry="6" />
<ellipse fill="#c9b4ab" fill-opacity="0.501961" cx="104" cy="39" rx="4" ry="4" />
<ellipse fill="#3c2519" fill-opacity="0.501961" cx="155" cy="134" rx="16" ry="16" />
<ellipse fill="#c4a493" fill-opacity="0.501961" cx="90" cy="70" rx="5" ry="5" />
<ellipse fill="#f5c288" fill-opacity="0.501961" cx="216" cy="149" rx="4" ry="4" />
<ellipse fill="#f7aa2e" fill-opacity="0.501961" cx="69" cy="159" rx="6" ry="6" />
<ellipse fill="#ffd568" fill-opacity="0.501961" cx="58" cy="4" rx="12" ry="12" />
<ellipse fill="#d9926b" fill-opacity="0.501961" cx="151" cy="74" rx="4" ry="4" />
<ellipse fill="#190b03" fill-opacity="0.501961" cx="82" cy="90" rx="6" ry="6" />
<ellipse fill="#6f710c" fill-opacity="0.501961" cx="244" cy="22" rx="10" ry="10" />
<ellipse fill="#392316" fill-opacity="0.501961" cx="150" cy="16" rx="6" ry="6" />
<ellipse fill="#814907" fill-opacity="0.501961" cx="22" cy="243" rx="11" ry="11" />
<ellipse fill="#6a2500" fill-opacity="0.501961" cx="230" cy="245" rx="8" ry="8" />
<ellipse fill="#6d2802" fill-opacity="0.501961" cx="122" cy="80" rx="3" ry="3" />
<ellipse fill="#ffe0b1" fill-opacity="0.501961" cx="108" cy="105" rx="5" ry="5" />
<ellipse fill="#cbab88" fill-opacity="0.501961" cx="101" cy="145" rx="8" ry="8" />
<ellipse fill="#aa682f" fill-opacity="0.501961" cx="117" cy="117" rx="9" ry="9" />
<ellipse fill="#1f0e06" fill-opacity="0.501961" cx="182" cy="98" rx="10" ry="10" />
<ellipse fill="#976018" fill-opacity="0.501961" cx="27" cy="171" rx="14" ry="14" />
<ellipse fill="#fff558" fill-opacity="0.501961" cx="68" cy="52" rx="10" ry="10" />
<ellipse fill="#ffdf66" fill-opacity="0.501961" cx="95" cy="6" rx="10" ry="10" />
<ellipse fill="#c29342" fill-opacity="0.501961" cx="64" cy="198" rx="15" ry="15" />
<ellipse fill="#4c2c1f" fill-opacity="0.501961" cx="195" cy="144" rx="12" ry="12" />
<ellipse fill="#eab481" fill-opacity="0.501961" cx="127" cy="98" rx="5" ry="5" />
<ellipse fill="#a27256" fill-opacity="0.501961" cx="173" cy="29" rx="10" ry="10" />
<ellipse fill="#423d00" fill-opacity="0.501961" cx="5" cy="152" rx="8" ry="8" />
<ellipse fill="#6e6000" fill-opacity="0.501961" cx="5" cy="97" rx="6" ry="6" />
<ellipse fill="#d8783f" fill-opacity="0.501961" cx="145" cy="88" rx="4" ry="4" />
<ellipse fill="#b68a00" fill-opacity="0.501961" cx="5" cy="130" rx="18" ry="18" />
<ellipse fill="#ecb502" fill-opacity="0.501961" cx="2" cy="77" rx="12" ry="12" />
<ellipse fill="#251108" fill-opacity="0.501961" cx="165" cy="61" rx="9" ry="9" />
<ellipse fill="#252800" fill-opacity="0.501961" cx="250" cy="139" rx="11" ry="11" />
<ellipse fill="#dca772" fill-opacity="0.501961" cx="131" cy="52" rx="7" ry="7" />
<ellipse fill="#896250" fill-opacity="0.501961" cx="187" cy="52" rx="7" ry="7" />
<ellipse fill="#f1b853" fill-opacity="0.501961" cx="200" cy="237" rx="6" ry="6" />
<ellipse fill="#c9ad6a" fill-opacity="0.501961" cx="25" cy="152" rx="6" ry="6" />
<ellipse fill="#d4b09b" fill-opacity="0.501961" cx="117" cy="32" rx="6" ry="6" />
<ellipse fill="#ebcd04" fill-opacity="0.501961" cx="81" cy="24" rx="9" ry="9" />
<ellipse fill="#945543" fill-opacity="0.501961" cx="132" cy="83" rx="4" ry="4" />
<ellipse fill="#fdd90c" fill-opacity="0.501961" cx="50" cy="60" rx="9" ry="9" />
<ellipse fill="#b09100" fill-opacity="0.501961" cx="228" cy="0" rx="12" ry="12" />
<ellipse fill="#ebb041" fill-opacity="0.501961" cx="15" cy="11" rx="8" ry="8" />
<ellipse fill="#643d2b" fill-opacity="0.501961" cx="169" cy="244" rx="9" ry="9" />
<ellipse fill="#354045" fill-opacity="0.501961" cx="102" cy="203" rx="2" ry="2" />
<ellipse fill="#a57d52" fill-opacity="0.501961" cx="201" cy="91" rx="11" ry="11" />
<ellipse fill="#585e4f" fill-opacity="0.501961" cx="237" cy="174" rx="5" ry="5" />
<ellipse fill="#48585f" fill-opacity="0.501961" cx="98" cy="169" rx="2" ry="2" />
<ellipse fill="#83603f" fill-opacity="0.501961" cx="223" cy="143" rx="7" ry="7" />
<ellipse fill="#f6db00" fill-opacity="0.501961" cx="67" cy="89" rx="6" ry="6" />
<ellipse fill="#c0a084" fill-opacity="0.501961" cx="91" cy="78" rx="7" ry="7" />
<ellipse fill="#c0750a" fill-opacity="0.501961" cx="223" cy="216" rx="11" ry="11" />
<ellipse fill="#9c6b29" fill-opacity="0.501961" cx="140" cy="158" rx="8" ry="8" />
<ellipse fill="#753d04" fill-opacity="0.501961" cx="25" cy="201" rx="8" ry="8" />
<ellipse fill="#7c5d43" fill-opacity="0.501961" cx="94" cy="111" rx="9" ry="9" />
<ellipse fill="#5c5c06" fill-opacity="0.501961" cx="243" cy="5" rx="6" ry="6" />
<ellipse fill="#9aa9a7" fill-opacity="0.501961" cx="226" cy="255" rx="4" ry="4" />
<ellipse fill="#ffdf75" fill-opacity="0.501961" cx="239" cy="195" rx="5" ry="5" />
<ellipse fill="#657732" fill-opacity="0.501961" cx="254" cy="200" rx="5" ry="5" />
<ellipse fill="#ffe3bb" fill-opacity="0.501961" cx="129" cy="68" rx="7" ry="7" />
<ellipse fill="#9a5f15" fill-opacity="0.501961" cx="86" cy="173" rx="8" ry="8" />
<ellipse fill="#341e0b" fill-opacity="0.501961" cx="191" cy="185" rx="9" ry="9" />
<ellipse fill="#582f14" fill-opacity="0.501961" cx="68" cy="117" rx="5" ry="5" />
<ellipse fill="#080000" fill-opacity="0.501961" cx="74" cy="126" rx="4" ry="4" />
<ellipse fill="#7b939d" fill-opacity="0.501961" cx="128" cy="243" rx="8" ry="8" />
<ellipse fill="#bd8033" fill-opacity="0.501961" cx="64" cy="125" rx="7" ry="7" />
<ellipse fill="#80501e" fill-opacity="0.501961" cx="210" cy="227" rx="7" ry="7" />
<ellipse fill="#979300" fill-opacity="0.501961" cx="231" cy="25" rx="9" ry="9" />
<ellipse fill="#25140c" fill-opacity="0.501961" cx="97" cy="33" rx="6" ry="6" />
<ellipse fill="#d9feff" fill-opacity="0.501961" cx="90" cy="155" rx="3" ry="3" />
<ellipse fill="#ccc981" fill-opacity="0.501961" cx="255" cy="185" rx="8" ry="8" />
<ellipse fill="#41291c" fill-opacity="0.501961" cx="147" cy="67" rx="4" ry="4" />
<ellipse fill="#c8953f" fill-opacity="0.501961" cx="49" cy="167" rx="8" ry="8" />
</g>
</svg>