<svg xmlns="http://www.w3.org/2000/svg" version="1.1" width="256" height="256">
<rect x="0" y="0" width="256" height="256" fill="#a9724e" />
<g transform="scale(1.000000) translate(0.5 0.5)">
<ellipse fill="#ffffff" fill-opacity="0.501961" cx="0" cy="67" rx="68" ry="68" />
<ellipse fill="#000000" fill-opacity="0.501961" cx="174" cy="150" rx="52" ry="52" />
<ellipse fill="#000000" fill-opacity="0.501961" cx="184" cy="70" rx="34" ry="34" />
<ellipse fill="#ffff36" fill-opacity="0.501961" cx="255" cy="32" rx="59" ry="59" />
<ellipse fill="#080000" fill-opacity="0.501961" cx="175" cy="215" rx="29" ry="29" />
<ellipse fill="#180000" fill-opacity="0.501961" cx="170" cy="29" rx="28" ry="28" />
<ellipse fill="#ffffb8" fill-opacity="0.501961" cx="0" cy="84" rx="66" ry="66" />
<ellipse fill="#ffd1b0" fill-opacity="0.501961" cx="124" cy="60" rx="33" ry="33" />
<ellipse fill="#ffff80" fill-opacity="0.501961" cx="52" cy="5" rx="33" ry="33" />
<ellipse fill="#320e00" fill-opacity="0.501961" cx="81" cy="57" rx="23" ry="23" />
<ellipse fill="#ffd986" fill-opacity="0.501961" cx="255" cy="137" rx="36" ry="36" />
<ellipse fill="#460700" fill-opacity="0.501961" cx="89" cy="121" rx="24" ry="24" />
<ellipse fill="#0a0316" fill-opacity="0.501961" cx="123" cy="0" rx="27" ry="27" />
<ellipse fill="#1d0401" fill-opacity="0.501961" cx="187" cy="114" rx="33" ry="33" />
<ellipse fill="#090000" fill-opacity="0.501961" cx="91" cy="27" rx="15" ry="15" />
<ellipse fill="#faba65" fill-opacity="0.501961" cx="226" cy="227" rx="28" ry="28" />
<ellipse fill="#ffffff" fill-opacity="0.501961" cx="7" cy="24" rx="26" ry="26" />
<ellipse fill="#fffb49" fill-opacity="0.501961" cx="228" cy="18" rx="34" ry="34" />
<ellipse fill="#e1516f" fill-opacity="0.501961" cx="39" cy="151" rx="32" ry="32" />
<ellipse fill="#ffffff" fill-opacity="0.501961" cx="13" cy="96" rx="29" ry="29" />
<ellipse fill="#d14652" fill-opacity="0.501961" cx="88" cy="201" rx="63" ry="63" />
<ellipse fill="#ffedd6" fill-opacity="0.501961" cx="224" cy="182" rx="13" ry="13" />
<ellipse fill="#ffb726" fill-opacity="0.501961" cx="49" cy="55" rx="20" ry="20" />
<ellipse fill="#410000" fill-opacity="0.501961" cx="172" cy="241" rx="20" ry="20" />
<ellipse fill="#3c0f0d" fill-opacity="0.501961" cx="173" cy="184" rx="36" ry="36" />
<ellipse fill="#d39679" fill-opacity="0.501961" cx="126" cy="85" rx="34" ry="34" />
<ellipse fill="#391200" fill-opacity="0.501961" cx="174" cy="52" rx="28" ry="28" />
<ellipse fill="#ffc130" fill-opacity="0.501961" cx="57" cy="91" rx="18" ry="18" />
<ellipse fill="#fdcca9" fill-opacity="0.501961" cx="116" cy="40" rx="19" ry="19" />
<ellipse fill="#e95c71" fill-opacity="0.501961" cx="0" cy="210" rx="41" ry="41" />
<ellipse fill="#361415" fill-opacity="0.501961" cx="85" cy="91" rx="13" ry="13" />
<ellipse fill="#430000" fill-opacity="0.501961" cx="235" cy="159" rx="8" ry="8" />
<ellipse fill="#630e00" fill-opacity="0.501961" cx="123" cy="137" rx="16" ry="16" />
<ellipse fill="#441500" fill-opacity="0.501961" cx="112" cy="59" rx="8" ry="8" />
<ellipse fill="#fff7ea" fill-opacity="0.501961" cx="217" cy="199" rx="10" ry="10" />
<ellipse fill="#9d6606" fill-opacity="0.501961" cx="253" cy="203" rx="28" ry="28" />
<ellipse fill="#952626" fill-opacity="0.501961" cx="55" cy="255" rx="31" ry="31" />
<ellipse fill="#cc9f23" fill-opacity="0.501961" cx="238" cy="103" rx="22" ry="22" />
<ellipse fill="#fff471" fill-opacity="0.501961" cx="65" cy="0" rx="23" ry="23" />
<ellipse fill="#e7b896" fill-opacity="0.501961" cx="112" cy="66" rx="23" ry="23" />
<ellipse fill="#ffdfaf" fill-opacity="0.501961" cx="153" cy="77" rx="9" ry="9" />
<ellipse fill="#120002" fill-opacity="0.501961" cx="78" cy="54" rx="13" ry="13" />
<ellipse fill="#371a0e" fill-opacity="0.501961" cx="184" cy="99" rx="32" ry="32" />
<ellipse fill="#df7774" fill-opacity="0.501961" cx="80" cy="209" rx="27" ry="27" />
<ellipse fill="#f7c9be" fill-opacity="0.501961" cx="202" cy="248" rx="11" ry="11" />
<ellipse fill="#592712" fill-opacity="0.501961" cx="109" cy="61" rx="9" ry="9" />
<ellipse fill="#ffb046" fill-opacity="0.501961" cx="57" cy="35" rx="17" ry="17" />
<ellipse fill="#ffddea" fill-opacity="0.501961" cx="246" cy="149" rx="10" ry="10" />
<ellipse fill="#5c2f17" fill-opacity="0.501961" cx="144" cy="62" rx="9" ry="9" />
<ellipse fill="#fffffc" fill-opacity="0.501961" cx="237" cy="173" rx="7" ry="7" />
<ellipse fill="#ffff7e" fill-opacity="0.501961" cx="230" cy="67" rx="12" ry="12" />
<ellipse fill="#ffff61" fill-opacity="0.501961" cx="199" cy="0" rx="12" ry="12" />
<ellipse fill="#b16f0c" fill-opacity="0.501961" cx="188" cy="20" rx="11" ry="11" />
<ellipse fill="#efac9b" fill-opacity="0.501961" cx="130" cy="111" rx="12" ry="12" />
<ellipse fill="#280200" fill-opacity="0.501961" cx="209" cy="150" rx="15" ry="15" />
<ellipse fill="#d77f5c" fill-opacity="0.501961" cx="124" cy="165" rx="16" ry="16" />
<ellipse fill="#cd5956" fill-opacity="0.501961" cx="132" cy="235" rx="26" ry="26" />
<ellipse fill="#ffffff" fill-opacity="0.501961" cx="25" cy="100" rx="21" ry="21" />
<ellipse fill="#711300" fill-opacity="0.501961" cx="128" cy="92" rx="7" ry="7" />
<ellipse fill="#441504" fill-opacity="0.501961" cx="92" cy="115" rx="15" ry="15" />
<ellipse fill="#c96d66" fill-opacity="0.501961" cx="56" cy="148" rx="30" ry="30" />
<ellipse fill="#ffffe7" fill-opacity="0.501961" cx="12" cy="24" rx="25" ry="25" />
<ellipse fill="#2e0f0d" fill-opacity="0.501961" cx="155" cy="133" rx="22" ry="22" />
<ellipse fill="#ffffb2" fill-opacity="0.501961" cx="0" cy="144" rx="11" ry="11" />
<ellipse fill="#ffdac0" fill-opacity="0.501961" cx="133" cy="75" rx="12" ry="12" />
<ellipse fill="#ffff85" fill-opacity="0.501961" cx="218" cy="41" rx="13" ry="13" />
<ellipse fill="#863a26" fill-opacity="0.501961" cx="90" cy="148" rx="14" ry="14" />
<ellipse fill="#523326" fill-opacity="0.501961" cx="149" cy="8" rx="23" ry="23" />
<ellipse fill="#421c13" fill-opacity="0.501961" cx="177" cy="201" rx="30" ry="30" />
<ellipse fill="#583c39" fill-opacity="0.501961" cx="169" cy="151" rx="23" ry="23" />
<ellipse fill="#ffc425" fill-opacity="0.501961" cx="255" cy="33" rx="34" ry="34" />
<ellipse fill="#ffe6e8" fill-opacity="0.501961" cx="250" cy="163" rx="8" ry="8" />
<ellipse fill="#fbbd46" fill-opacity="0.501961" cx="0" cy="65" rx="12" ry="12" />
<ellipse fill="#260a00" fill-opacity="0.501961" cx="85" cy="36" rx="12" ry="12" />
<ellipse fill="#ffe944" fill-opacity="0.501961" cx="230" cy="129" rx="11" ry="11" />
<ellipse fill="#8c5308" fill-opacity="0.501961" cx="228" cy="228" rx="8" ry="8" />
<ellipse fill="#ffdec6" fill-opacity="0.501961" cx="109" cy="73" rx="10" ry="10" />
<ellipse fill="#362c44" fill-opacity="0.501961" cx="97" cy="8" rx="9" ry="9" />
<ellipse fill="#fdcfa7" fill-opacity="0.501961" cx="126" cy="40" rx="17" ry="17" />
<ellipse fill="#ffbf41" fill-opacity="0.501961" cx="209" cy="66" rx="6" ry="6" />
<ellipse fill="#f4da68" fill-opacity="0.501961" cx="222" cy="90" rx="8" ry="8" />
<ellipse fill="#ffbf4c" fill-opacity="0.501961" cx="244" cy="236" rx="12" ry="12" />
<ellipse fill="#fdb74a" fill-opacity="0.501961" cx="237" cy="209" rx="10" ry="10" />
<ellipse fill="#5f4037" fill-opacity="0.501961" cx="172" cy="100" rx="14" ry="14" />
<ellipse fill="#4b271c" fill-opacity="0.501961" cx="77" cy="70" rx="14" ry="14" />
<ellipse fill="#280c00" fill-opacity="0.501961" cx="206" cy="137" rx="16" ry="16" />
<ellipse fill="#2a0000" fill-opacity="0.501961" cx="167" cy="250" rx="10" ry="10" />
<ellipse fill="#563b00" fill-opacity="0.501961" cx="249" cy="255" rx="10" ry="10" />
<ellipse fill="#a1322a" fill-opacity="0.501961" cx="44" cy="198" rx="13" ry="13" />
<ellipse fill="#f5c8bb" fill-opacity="0.501961" cx="215" cy="208" rx="9" ry="9" />
<ellipse fill="#cc6760" fill-opacity="0.501961" cx="114" cy="205" rx="32" ry="32" />
<ellipse fill="#8d431f" fill-opacity="0.501961" cx="203" cy="57" rx="10" ry="10" />
<ellipse fill="#1e0000" fill-opacity="0.501961" cx="224" cy="162" rx="6" ry="6" />
<ellipse fill="#ffcd61" fill-opacity="0.501961" cx="55" cy="102" rx="16" ry="16" />
<ellipse fill="#ffff96" fill-opacity="0.501961" cx="82" cy="0" rx="9" ry="9" />
<ellipse fill="#ffef75" fill-opacity="0.501961" cx="0" cy="159" rx="7" ry="7" />
<ellipse fill="#cd7679" fill-opacity="0.501961" cx="32" cy="140" rx="20" ry="20" />
<ellipse fill="#ca9a9b" fill-opacity="0.501961" cx="209" cy="230" rx="12" ry="12" />
<ellipse fill="#ffffb7" fill-opacity="0.501961" cx="31" cy="42" rx="12" ry="12" />
<ellipse fill="#7a3203" fill-opacity="0.501961" cx="118" cy="61" rx="5" ry="5" />
<ellipse fill="#ffb66f" fill-opacity="0.501961" cx="45" cy="0" rx="21" ry="21" />
<ellipse fill="#5e1715" fill-opacity="0.501961" cx="95" cy="167" rx="6" ry="6" />
<ellipse fill="#310d00" fill-opacity="0.501961" cx="124" cy="16" rx="9" ry="9" />
<ellipse fill="#e8947e" fill-opacity="0.501961" cx="228" cy="147" rx="10" ry="10" />
<ellipse fill="#b28025" fill-opacity="0.501961" cx="240" cy="100" rx="17" ry="17" />
<ellipse fill="#da8c00" fill-opacity="0.501961" cx="252" cy="60" rx="10" ry="10" />
<ellipse fill="#fbbb21" fill-opacity="0.501961" cx="188" cy="21" rx="5" ry="5" />
<ellipse fill="#321505" fill-opacity="0.501961" cx="169" cy="39" rx="20" ry="20" />
<ellipse fill="#774c30" fill-opacity="0.501961" cx="239" cy="188" rx="10" ry="10" />
<ellipse fill="#1d0200" fill-opacity="0.501961" cx="198" cy="167" rx="12" ry="12" />
<ellipse fill="#ffe66b" fill-opacity="0.501961" cx="237" cy="70" rx="12" ry="12" />
<ellipse fill="#d29758" fill-opacity="0.501961" cx="215" cy="173" rx="5" ry="5" />
<ellipse fill="#ffffec" fill-opacity="0.501961" cx="22" cy="79" rx="18" ry="18" />
<ellipse fill="#a75f3d" fill-opacity="0.501961" cx="142" cy="91" rx="10" ry="10" />
<ellipse fill="#ffd2be" fill-opacity="0.501961" cx="228" cy="176" rx="9" ry="9" />
<ellipse fill="#bf4249" fill-opacity="0.501961" cx="19" cy="253" rx="21" ry="21" />
<ellipse fill="#853827" fill-opacity="0.501961" cx="92" cy="255" rx="13" ry="13" />
<ellipse fill="#db716a" fill-opacity="0.501961" cx="79" cy="161" rx="14" ry="14" />
<ellipse fill="#ffde4b" fill-opacity="0.501961" cx="239" cy="4" rx="44" ry="44" />
<ellipse fill="#fbbe86" fill-opacity="0.501961" cx="144" cy="48" rx="7" ry="7" />
<ellipse fill="#a2342e" fill-opacity="0.501961" cx="187" cy="239" rx="8" ry="8" />
<ellipse fill="#2a0d02" fill-opacity="0.501961" cx="195" cy="85" rx="17" ry="17" />
<ellipse fill="#ffffff" fill-opacity="0.501961" cx="13" cy="24" rx="16" ry="16" />
<ellipse fill="#b7703c" fill-opacity="0.501961" cx="103" cy="92" rx="10" ry="10" />
<ellipse fill="#381006" fill-opacity="0.501961" cx="182" cy="220" rx="18" ry="18" />
<ellipse fill="#ffffc3" fill-opacity="0.501961" cx="0" cy="122" rx="17" ry="17" />
<ellipse fill="#6e4d3f" fill-opacity="0.501961" cx="149" cy="7" rx="16" ry="16" />
<ellipse fill="#773a03" fill-opacity="0.501961" cx="192" cy="31" rx="8" ry="8" />
<ellipse fill="#e09500" fill-opacity="0.501961" cx="239" cy="53" rx="8" ry="8" />
<ellipse fill="#ffce6b" fill-opacity="0.501961" cx="225" cy="111" rx="6" ry="6" />
<ellipse fill="#ffff87" fill-opacity="0.501961" cx="219" cy="38" rx="10" ry="10" />
<ellipse fill="#dc9d88" fill-opacity="0.501961" cx="121" cy="110" rx="12" ry="12" />
<ellipse fill="#8f3012" fill-opacity="0.501961" cx="126" cy="110" rx="4" ry="4" />
<ellipse fill="#ffc251" fill-opacity="0.501961" cx="51" cy="70" rx="14" ry="14" />
<ellipse fill="#410000" fill-opacity="0.501961" cx="238" cy="161" rx="5" ry="5" />
<ellipse fill="#613c32" fill-opacity="0.501961" cx="166" cy="198" rx="10" ry="10" />
<ellipse fill="#c2925b" fill-opacity="0.501961" cx="134" cy="155" rx="6" ry="6" />
<ellipse fill="#fff08b" fill-opacity="0.501961" cx="0" cy="86" rx="10" ry="10" />
<ellipse fill="#ffff4f" fill-opacity="0.501961" cx="185" cy="0" rx="4" ry="4" />
<ellipse fill="#ffc36d" fill-opacity="0.501961" cx="230" cy="243" rx="8" ry="8" />
<ellipse fill="#6b3000" fill-opacity="0.501961" cx="124" cy="145" rx="10" ry="10" />
<ellipse fill="#371000" fill-opacity="0.501961" cx="138" cy="21" rx="7" ry="7" />
<ellipse fill="#ffd585" fill-opacity="0.501961" cx="19" cy="55" rx="11" ry="11" />
<ellipse fill="#773f1b" fill-opacity="0.501961" cx="139" cy="60" rx="6" ry="6" />
<ellipse fill="#e6bf79" fill-opacity="0.501961" cx="108" cy="153" rx="5" ry="5" />
<ellipse fill="#ad3933" fill-opacity="0.501961" cx="47" cy="217" rx="13" ry="13" />
<ellipse fill="#ffd2a4" fill-opacity="0.501961" cx="140" cy="90" rx="4" ry="4" />
<ellipse fill="#ffd3b6" fill-opacity="0.501961" cx="219" cy="194" rx="9" ry="9" />
<ellipse fill="#5f1511" fill-opacity="0.501961" cx="98" cy="154" rx="6" ry="6" />
<ellipse fill="#ffddc7" fill-opacity="0.501961" cx="242" cy="171" rx="6" ry="6" />
<ellipse fill="#f08887" fill-opacity="0.501961" cx="13" cy="183" rx="9" ry="9" />
<ellipse fill="#8e5807" fill-opacity="0.501961" cx="255" cy="211" rx="13" ry="13" />
<ellipse fill="#fecdae" fill-opacity="0.501961" cx="98" cy="71" rx="7" ry="7" />
<ellipse fill="#784401" fill-opacity="0.501961" cx="220" cy="146" rx="5" ry="5" />
<ellipse fill="#903e29" fill-opacity="0.501961" cx="134" cy="109" rx="4" ry="4" />
<ellipse fill="#e79f6a" fill-opacity="0.501961" cx="155" cy="69" rx="5" ry="5" />
<ellipse fill="#914213" fill-opacity="0.501961" cx="115" cy="134" rx="14" ry="14" />
<ellipse fill="#754229" fill-opacity="0.501961" cx="106" cy="62" rx="8" ry="8" />
<ellipse fill="#451200" fill-opacity="0.501961" cx="251" cy="177" rx="4" ry="4" />
<ellipse fill="#81292a" fill-opacity="0.501961" cx="86" cy="178" rx="6" ry="6" />
<ellipse fill="#e5d282" fill-opacity="0.501961" cx="222" cy="101" rx="5" ry="5" />
<ellipse fill="#a16644" fill-opacity="0.501961" cx="216" cy="245" rx="7" ry="7" />
<ellipse fill="#543520" fill-opacity="0.501961" cx="197" cy="189" rx="13" ry="13" />
<ellipse fill="#821f1d" fill-opacity="0.501961" cx="46" cy="248" rx="9" ry="9" />
<ellipse fill="#b54a3e" fill-opacity="0.501961" cx="50" cy="176" rx="15" ry="15" />
<ellipse fill="#ac8150" fill-opacity="0.501961" cx="92" cy="137" rx="6" ry="6" />
<ellipse fill="#0b0000" fill-opacity="0.501961" cx="171" cy="76" rx="8" ry="8" />
<ellipse fill="#34170d" fill-opacity="0.501961" cx="160" cy="121" rx="17" ry="17" />
<ellipse fill="#7f5e51" fill-opacity="0.501961" cx="187" cy="148" rx="7" ry="7" />
<ellipse fill="#fbab41" fill-opacity="0.501961" cx="66" cy="26" rx="11" ry="11" />
<ellipse fill="#682000" fill-opacity="0.501961" cx="213" cy="77" rx="6" ry="6" />
<ellipse fill="#de9c28" fill-opacity="0.501961" cx="255" cy="89" rx="14" ry="14" />
<ellipse fill="#ffe06e" fill-opacity="0.501961" cx="223" cy="79" rx="5" ry="5" />
<ellipse fill="#2a0200" fill-opacity="0.501961" cx="137" cy="137" rx="10" ry="10" />
<ellipse fill="#ffff7d" fill-opacity="0.501961" cx="76" cy="0" rx="13" ry="13" />
<ellipse fill="#fffe7e" fill-opacity="0.501961" cx="0" cy="103" rx="8" ry="8" />
<ellipse fill="#ffffff" fill-opacity="0.501961" cx="24" cy="107" rx="16" ry="16" />
<ellipse fill="#f8c0b0" fill-opacity="0.501961" cx="240" cy="145" rx="10" ry="10" />
<ellipse fill="#e2b98d" fill-opacity="0.501961" cx="70" cy="125" rx="4" ry="4" />
<ellipse fill="#360c00" fill-opacity="0.501961" cx="188" cy="9" rx="4" ry="4" />
<ellipse fill="#fff655" fill-opacity="0.501961" cx="225" cy="56" rx="8" ry="8" />
<ellipse fill="#c19c59" fill-opacity="0.501961" cx="255" cy="121" rx="22" ry="22" />
<ellipse fill="#462419" fill-opacity="0.501961" cx="93" cy="18" rx="11" ry="11" />
<ellipse fill="#de852d" fill-opacity="0.501961" cx="67" cy="82" rx="5" ry="5" />
<ellipse fill="#c86b66" fill-opacity="0.501961" cx="27" cy="160" rx="24" ry="24" />
<ellipse fill="#e4847f" fill-opacity="0.501961" cx="76" cy="196" rx="11" ry="11" />
<ellipse fill="#703c26" fill-opacity="0.501961" cx="84" cy="101" rx="12" ry="12" />
<ellipse fill="#8b2b26" fill-opacity="0.501961" cx="149" cy="255" rx="8" ry="8" />
<ellipse fill="#f8caab" fill-opacity="0.501961" cx="125" cy="118" rx="6" ry="6" />
<ellipse fill="#301408" fill-opacity="0.501961" cx="200" cy="116" rx="17" ry="17" />
<ellipse fill="#bf5a50" fill-opacity="0.501961" cx="98" cy="227" rx="18" ry="18" />
<ellipse fill="#2a0d06" fill-opacity="0.501961" cx="72" cy="117" rx="5" ry="5" />
<ellipse fill="#dcaa93" fill-opacity="0.501961" cx="204" cy="239" rx="10" ry="10" />
<ellipse fill="#ffd653" fill-opacity="0.501961" cx="227" cy="125" rx="8" ry="8" />
<ellipse fill="#fffb60" fill-opacity="0.501961" cx="196" cy="0" rx="9" ry="9" />
<ellipse fill="#a07011" fill-opacity="0.501961" cx="235" cy="92" rx="9" ry="9" />
<ellipse fill="#f8d2c7" fill-opacity="0.501961" cx="126" cy="79" rx="8" ry="8" />
<ellipse fill="#200000" fill-opacity="0.501961" cx="141" cy="96" rx="2" ry="2" />
<ellipse fill="#7f5924" fill-opacity="0.501961" cx="235" cy="226" rx="5" ry="5" />
<ellipse fill="#ca8b18" fill-opacity="0.501961" cx="182" cy="15" rx="5" ry="5" />
<ellipse fill="#6b1416" fill-opacity="0.501961" cx="115" cy="97" rx="3" ry="3" />
<ellipse fill="#613f57" fill-opacity="0.501961" cx="62" cy="121" rx="5" ry="5" />
<ellipse fill="#f0c3a3" fill-opacity="0.501961" cx="116" cy="40" rx="15" ry="15" />
<ellipse fill="#8a2e19" fill-opacity="0.501961" cx="217" cy="66" rx="3" ry="3" />
<ellipse fill="#6c2416" fill-opacity="0.501961" cx="212" cy="57" rx="4" ry="4" />
<ellipse fill="#30160b" fill-opacity="0.501961" cx="83" cy="44" rx="12" ry="12" />
<ellipse fill="#ffff99" fill-opacity="0.501961" cx="0" cy="146" rx="8" ry="8" />
<ellipse fill="#d2923f" fill-opacity="0.501961" cx="234" cy="208" rx="13" ry="13" />
<ellipse fill="#3c262c" fill-opacity="0.501961" cx="84" cy="87" rx="8" ry="8" />
<ellipse fill="#ffddc3" fill-opacity="0.501961" cx="146" cy="76" rx="7" ry="7" />
<ellipse fill="#9c4e3d" fill-opacity="0.501961" cx="121" cy="254" rx="12" ry="12" />
<ellipse fill="#c86359" fill-opacity="0.501961" cx="125" cy="223" rx="28" ry="28" />
<ellipse fill="#ef9e72" fill-opacity="0.501961" cx="155" cy="81" rx="6" ry="6" />
<ellipse fill="#51300a" fill-opacity="0.501961" cx="99" cy="144" rx="5" ry="5" />
<ellipse fill="#3b0300" fill-opacity="0.501961" cx="150" cy="180" rx="9" ry="9" />
<ellipse fill="#702300" fill-opacity="0.501961" cx="126" cy="131" rx="9" ry="9" />
<ellipse fill="#d36d69" fill-opacity="0.501961" cx="19" cy="215" rx="20" ry="20" />
<ellipse fill="#7f3c19" fill-opacity="0.501961" cx="120" cy="89" rx="3" ry="3" />
<ellipse fill="#754a3c" fill-opacity="0.501961" cx="164" cy="169" rx="8" ry="8" />
<ellipse fill="#962e22" fill-opacity="0.501961" cx="230" cy="146" rx="3" ry="3" />
<ellipse fill="#fff09c" fill-opacity="0.501961" cx="0" cy="50" rx="10" ry="10" />
<ellipse fill="#ffc546" fill-opacity="0.501961" cx="211" cy="65" rx="5" ry="5" />
<ellipse fill="#ffffff" fill-opacity="0.501961" cx="19" cy="85" rx="14" ry="14" />
<ellipse fill="#ffd8b6" fill-opacity="0.501961" cx="134" cy="116" rx="4" ry="4" />
<ellipse fill="#fdb326" fill-opacity="0.501961" cx="230" cy="20" rx="9" ry="9" />
<ellipse fill="#d07876" fill-opacity="0.501961" cx="32" cy="141" rx="21" ry="21" />
<ellipse fill="#89695e" fill-opacity="0.501961" cx="190" cy="185" rx="4" ry="4" />
<ellipse fill="#a4542c" fill-opacity="0.501961" cx="121" cy="110" rx="4" ry="4" />
<ellipse fill="#ae7b2a" fill-opacity="0.501961" cx="237" cy="108" rx="11" ry="11" />
<ellipse fill="#622523" fill-opacity="0.501961" cx="160" cy="222" rx="10" ry="10" />
<ellipse fill="#792f08" fill-opacity="0.501961" cx="133" cy="89" rx="4" ry="4" />
<ellipse fill="#a42925" fill-opacity="0.501961" cx="137" cy="188" rx="8" ry="8" />
<ellipse fill="#f2a352" fill-opacity="0.501961" cx="69" cy="90" rx="6" ry="6" />
<ellipse fill="#271001" fill-opacity="0.501961" cx="176" cy="174" rx="8" ry="8" />
<ellipse fill="#fffffe" fill-opacity="0.501961" cx="12" cy="121" rx="8" ry="8" />
<ellipse fill="#7b657f" fill-opacity="0.501961" cx="130" cy="7" rx="4" ry="4" />
<ellipse fill="#c3574e" fill-opacity="0.501961" cx="50" cy="148" rx="13" ry="13" />
<ellipse fill="#fa9807" fill-opacity="0.501961" cx="202" cy="45" rx="4" ry="4" />
<ellipse fill="#ce685b" fill-opacity="0.501961" cx="117" cy="175" rx="19" ry="19" />
<ellipse fill="#ffba5a" fill-opacity="0.501961" cx="54" cy="42" rx="14" ry="14" />
<ellipse fill="#fff073" fill-opacity="0.501961" cx="226" cy="140" rx="4" ry="4" />
<ellipse fill="#a5493e" fill-opacity="0.501961" cx="84" cy="145" rx="13" ry="13" />
<ellipse fill="#eebb8d" fill-opacity="0.501961" cx="106" cy="98" rx="4" ry="4" />
<ellipse fill="#955525" fill-opacity="0.501961" cx="220" cy="237" rx="4" ry="4" />
<ellipse fill="#a9622d" fill-opacity="0.501961" cx="152" cy="89" rx="6" ry="6" />
<ellipse fill="#d68450" fill-opacity="0.501961" cx="63" cy="107" rx="7" ry="7" />
<ellipse fill="#653f24" fill-opacity="0.501961" cx="195" cy="53" rx="9" ry="9" />
<ellipse fill="#ffd5c3" fill-opacity="0.501961" cx="220" cy="181" rx="5" ry="5" />
<ellipse fill="#702d16" fill-opacity="0.501961" cx="235" cy="161" rx="7" ry="7" />
<ellipse fill="#fcd5b4" fill-opacity="0.501961" cx="117" cy="114" rx="4" ry="4" />
<ellipse fill="#3f1b27" fill-opacity="0.501961" cx="194" cy="16" rx="3" ry="3" />
<ellipse fill="#5e302a" fill-opacity="0.501961" cx="195" cy="24" rx="4" ry="4" />
<ellipse fill="#6a4942" fill-opacity="0.501961" cx="183" cy="135" rx="6" ry="6" />
<ellipse fill="#8c4220" fill-opacity="0.501961" cx="107" cy="123" rx="9" ry="9" />
<ellipse fill="#560500" fill-opacity="0.501961" cx="145" cy="166" rx="7" ry="7" />
<ellipse fill="#e4aa87" fill-opacity="0.501961" cx="95" cy="67" rx="7" ry="7" />
<ellipse fill="#3c0800" fill-opacity="0.501961" cx="93" cy="124" rx="7" ry="7" />
<ellipse fill="#591e00" fill-opacity="0.501961" cx="236" cy="187" rx="4" ry="4" />
<ellipse fill="#bf7f58" fill-opacity="0.501961" cx="126" cy="25" rx="4" ry="4" />
<ellipse fill="#702b33" fill-opacity="0.501961" cx="65" cy="128" rx="4" ry="4" />
<ellipse fill="#dd8388" fill-opacity="0.501961" cx="51" cy="128" rx="9" ry="9" />
<ellipse fill="#ffd25d" fill-opacity="0.501961" cx="238" cy="131" rx="8" ry="8" />
<ellipse fill="#6e3a45" fill-opacity="0.501961" cx="207" cy="215" rx="3" ry="3" />
<ellipse fill="#fec857" fill-opacity="0.501961" cx="216" cy="167" rx="2" ry="2" />
<ellipse fill="#f5b71b" fill-opacity="0.501961" cx="252" cy="4" rx="10" ry="10" />
<ellipse fill="#fff18e" fill-opacity="0.501961" cx="46" cy="115" rx="7" ry="7" />
<ellipse fill="#faae55" fill-opacity="0.501961" cx="243" cy="238" rx="11" ry="11" />
<ellipse fill="#d1a768" fill-opacity="0.501961" cx="26" cy="1" rx="7" ry="7" />
<ellipse fill="#ffcf29" fill-opacity="0.501961" cx="211" cy="17" rx="10" ry="10" />
<ellipse fill="#72554c" fill-opacity="0.501961" cx="178" cy="114" rx="4" ry="4" />
<ellipse fill="#e9605c" fill-opacity="0.501961" cx="34" cy="236" rx="6" ry="6" />
<ellipse fill="#6d200b" fill-opacity="0.501961" cx="216" cy="61" rx="3" ry="3" />
<ellipse fill="#c8a365" fill-opacity="0.501961" cx="203" cy="152" rx="2" ry="2" />
<ellipse fill="#d16f68" fill-opacity="0.501961" cx="96" cy="196" rx="18" ry="18" />
<ellipse fill="#6c463c" fill-opacity="0.501961" cx="177" cy="66" rx="5" ry="5" />
<ellipse fill="#431300" fill-opacity="0.501961" cx="246" cy="181" rx="3" ry="3" />
<ellipse fill="#e2c4ad" fill-opacity="0.501961" cx="128" cy="102" rx="5" ry="5" />
<ellipse fill="#352220" fill-opacity="0.501961" cx="173" cy="152" rx="11" ry="11" />
<ellipse fill="#876051" fill-opacity="0.501961" cx="109" cy="21" rx="5" ry="5" />
<ellipse fill="#fcd0bc" fill-opacity="0.501961" cx="116" cy="92" rx="3" ry="3" />
<ellipse fill="#b56d08" fill-opacity="0.501961" cx="255" cy="242" rx="6" ry="6" />
<ellipse fill="#ad473c" fill-opacity="0.501961" cx="32" cy="226" rx="6" ry="6" />
<ellipse fill="#502b14" fill-opacity="0.501961" cx="207" cy="180" rx="7" ry="7" />
<ellipse fill="#f7b344" fill-opacity="0.501961" cx="233" cy="215" rx="7" ry="7" />
<ellipse fill="#ffffa8" fill-opacity="0.501961" cx="3" cy="136" rx="8" ry="8" />
<ellipse fill="#e1ab85" fill-opacity="0.501961" cx="106" cy="45" rx="10" ry="10" />
<ellipse fill="#ffc46a" fill-opacity="0.501961" cx="54" cy="11" rx="16" ry="16" />
<ellipse fill="#e6b49f" fill-opacity="0.501961" cx="196" cy="255" rx="7" ry="7" />
<ellipse fill="#673d28" fill-opacity="0.501961" cx="146" cy="59" rx="6" ry="6" />
<ellipse fill="#ffc16c" fill-opacity="0.501961" cx="226" cy="251" rx="5" ry="5" />
<ellipse fill="#3e0800" fill-opacity="0.501961" cx="144" cy="155" rx="5" ry="5" />
<ellipse fill="#ffff8a" fill-opacity="0.501961" cx="0" cy="117" rx="7" ry="7" />
<ellipse fill="#9d4739" fill-opacity="0.501961" cx="70" cy="254" rx="20" ry="20" />
<ellipse fill="#ffff6c" fill-opacity="0.501961" cx="0" cy="158" rx="4" ry="4" />
<ellipse fill="#310100" fill-opacity="0.501961" cx="99" cy="135" rx="3" ry="3" />
<ellipse fill="#fff7a0" fill-opacity="0.501961" cx="39" cy="85" rx="6" ry="6" />
<ellipse fill="#61392e" fill-opacity="0.501961" cx="152" cy="130" rx="6" ry="6" />
<ellipse fill="#200000" fill-opacity="0.501961" cx="225" cy="163" rx="4" ry="4" />
<ellipse fill="#350000" fill-opacity="0.501961" cx="113" cy="96" rx="2" ry="2" />
<ellipse fill="#efb945" fill-opacity="0.501961" cx="177" cy="0" rx="4" ry="4" />
</g>
</svg>