<svg xmlns="http://www.w3.org/2000/svg" version="1.1" width="256" height="256">
<rect x="0" y="0" width="256" height="256" fill="#a9724e" />
<g transform="scale(1.000000) translate(0.5 0.5)">
<ellipse fill="#ffffff" fill-opacity="0.501961" cx="0" cy="67" rx="68" ry="68" />
<ellipse fill="#000000" fill-opacity="0.501961" cx="175" cy="152" rx="52" ry="52" />
<ellipse fill="#080000" fill-opacity="0.501961" cx="182" cy="70" rx="36" ry="36" />
<ellipse fill="#ffff38" fill-opacity="0.501961" cx="244" cy="38" rx="47" ry="47" />
<ellipse fill="#0e0000" fill-opacity="0.501961" cx="174" cy="217" rx="29" ry="29" />
<ellipse fill="#ffd1b1" fill-opacity="0.501961" cx="124" cy="60" rx="33" ry="33" />
<ellipse fill="#1a0000" fill-opacity="0.501961" cx="171" cy="29" rx="28" ry="28" />
<ellipse fill="#ffffaa" fill-opacity="0.501961" cx="29" cy="0" rx="55" ry="55" />
<ellipse fill="#ffffbd" fill-opacity="0.501961" cx="5" cy="97" rx="56" ry="56" />
<ellipse fill="#3e1801" fill-opacity="0.501961" cx="82" cy="56" rx="25" ry="25" />
<ellipse fill="#ffdf95" fill-opacity="0.501961" cx="251" cy="141" rx="31" ry="31" />
<ellipse fill="#250000" fill-opacity="0.501961" cx="87" cy="113" rx="19" ry="19" />
<ellipse fill="#0b0215" fill-opacity="0.501961" cx="124" cy="0" rx="27" ry="27" />
<ellipse fill="#1a0200" fill-opacity="0.501961" cx="187" cy="107" rx="32" ry="32" />
<ellipse fill="#ffff48" fill-opacity="0.501961" cx="232" cy="13" rx="38" ry="38" />
<ellipse fill="#fff1d9" fill-opacity="0.501961" cx="223" cy="183" rx="13" ry="13" />
<ellipse fill="#f7b761" fill-opacity="0.501961" cx="227" cy="226" rx="29" ry="29" />
<ellipse fill="#dc4a67" fill-opacity="0.501961" cx="43" cy="156" rx="37" ry="37" />
<ellipse fill="#060000" fill-opacity="0.501961" cx="92" cy="24" rx="14" ry="14" />
<ellipse fill="#da505c" fill-opacity="0.501961" cx="99" cy="196" rx="51" ry="51" />
<ellipse fill="#ffffff" fill-opacity="0.501961" cx="16" cy="97" rx="27" ry="27" />
<ellipse fill="#ffbd2f" fill-opacity="0.501961" cx="49" cy="52" rx="21" ry="21" />
<ellipse fill="#ffffff" fill-opacity="0.501961" cx="13" cy="25" rx="23" ry="23" />
<ellipse fill="#440000" fill-opacity="0.501961" cx="173" cy="237" rx="21" ry="21" />
<ellipse fill="#d89c7c" fill-opacity="0.501961" cx="127" cy="75" rx="34" ry="34" />
<ellipse fill="#ffcf3a" fill-opacity="0.501961" cx="55" cy="91" rx="19" ry="19" />
<ellipse fill="#6f2403" fill-opacity="0.501961" cx="106" cy="137" rx="22" ry="22" />
<ellipse fill="#c95356" fill-opacity="0.501961" cx="52" cy="255" rx="106" ry="106" />
<ellipse fill="#3a0f0d" fill-opacity="0.501961" cx="175" cy="184" rx="36" ry="36" />
<ellipse fill="#f6c5a1" fill-opacity="0.501961" cx="116" cy="41" rx="20" ry="20" />
<ellipse fill="#e5b735" fill-opacity="0.501961" cx="246" cy="98" rx="32" ry="32" />
<ellipse fill="#391500" fill-opacity="0.501961" cx="174" cy="51" rx="28" ry="28" />
<ellipse fill="#ffd854" fill-opacity="0.501961" cx="57" cy="0" rx="31" ry="31" />
<ellipse fill="#270000" fill-opacity="0.501961" cx="235" cy="162" rx="7" ry="7" />
<ellipse fill="#3b0600" fill-opacity="0.501961" cx="114" cy="59" rx="7" ry="7" />
<ellipse fill="#912723" fill-opacity="0.501961" cx="59" cy="255" rx="31" ry="31" />
<ellipse fill="#955f03" fill-opacity="0.501961" cx="254" cy="201" rx="27" ry="27" />
<ellipse fill="#fff0e7" fill-opacity="0.501961" cx="216" cy="200" rx="10" ry="10" />
<ellipse fill="#090000" fill-opacity="0.501961" cx="79" cy="53" rx="13" ry="13" />
<ellipse fill="#190412" fill-opacity="0.501961" cx="83" cy="87" rx="10" ry="10" />
<ellipse fill="#ffffff" fill-opacity="0.501961" cx="238" cy="173" rx="7" ry="7" />
<ellipse fill="#f2b0a0" fill-opacity="0.501961" cx="129" cy="111" rx="13" ry="13" />
<ellipse fill="#efbdb6" fill-opacity="0.501961" cx="202" cy="244" rx="12" ry="12" />
<ellipse fill="#ffdcad" fill-opacity="0.501961" cx="153" cy="76" rx="9" ry="9" />
<ellipse fill="#53260f" fill-opacity="0.501961" cx="142" cy="62" rx="8" ry="8" />
<ellipse fill="#ffe3c8" fill-opacity="0.501961" cx="99" cy="73" rx="9" ry="9" />
<ellipse fill="#ffff7e" fill-opacity="0.501961" cx="233" cy="69" rx="13" ry="13" />
<ellipse fill="#cd7657" fill-opacity="0.501961" cx="119" cy="167" rx="21" ry="21" />
<ellipse fill="#1a0000" fill-opacity="0.501961" cx="207" cy="139" rx="15" ry="15" />
<ellipse fill="#520d00" fill-opacity="0.501961" cx="130" cy="138" rx="17" ry="17" />
<ellipse fill="#e16f74" fill-opacity="0.501961" cx="0" cy="206" rx="37" ry="37" />
<ellipse fill="#ffe4ed" fill-opacity="0.501961" cx="252" cy="154" rx="11" ry="11" />
<ellipse fill="#ffff5e" fill-opacity="0.501961" cx="201" cy="0" rx="13" ry="13" />
<ellipse fill="#ffaf4c" fill-opacity="0.501961" cx="56" cy="34" rx="18" ry="18" />
<ellipse fill="#ffffff" fill-opacity="0.501961" cx="25" cy="102" rx="20" ry="20" />
<ellipse fill="#d6786f" fill-opacity="0.501961" cx="82" cy="209" rx="28" ry="28" />
<ellipse fill="#ffe0c5" fill-opacity="0.501961" cx="131" cy="74" rx="12" ry="12" />
<ellipse fill="#6f1000" fill-opacity="0.501961" cx="129" cy="92" rx="7" ry="7" />
<ellipse fill="#351104" fill-opacity="0.501961" cx="88" cy="29" rx="14" ry="14" />
<ellipse fill="#ffd83f" fill-opacity="0.501961" cx="234" cy="28" rx="34" ry="34" />
<ellipse fill="#bd790f" fill-opacity="0.501961" cx="190" cy="22" rx="10" ry="10" />
<ellipse fill="#513324" fill-opacity="0.501961" cx="152" cy="13" rx="21" ry="21" />
<ellipse fill="#ffdd45" fill-opacity="0.501961" cx="231" cy="126" rx="12" ry="12" />
<ellipse fill="#ffffe7" fill-opacity="0.501961" cx="23" cy="29" rx="21" ry="21" />
<ellipse fill="#391e14" fill-opacity="0.501961" cx="186" cy="114" rx="34" ry="34" />
<ellipse fill="#ffff90" fill-opacity="0.501961" cx="217" cy="40" rx="12" ry="12" />
<ellipse fill="#eb9b00" fill-opacity="0.501961" cx="249" cy="56" rx="13" ry="13" />
<ellipse fill="#ae7f27" fill-opacity="0.501961" cx="246" cy="103" rx="21" ry="21" />
<ellipse fill="#360000" fill-opacity="0.501961" cx="166" cy="255" rx="13" ry="13" />
<ellipse fill="#5b2f1b" fill-opacity="0.501961" cx="107" cy="60" rx="8" ry="8" />
<ellipse fill="#411e15" fill-opacity="0.501961" cx="179" cy="207" rx="27" ry="27" />
<ellipse fill="#ffff92" fill-opacity="0.501961" cx="78" cy="0" rx="12" ry="12" />
<ellipse fill="#ffb848" fill-opacity="0.501961" cx="237" cy="210" rx="10" ry="10" />
<ellipse fill="#ffd8b1" fill-opacity="0.501961" cx="129" cy="39" rx="14" ry="14" />
<ellipse fill="#cc7475" fill-opacity="0.501961" cx="33" cy="143" rx="23" ry="23" />
<ellipse fill="#2c0f0d" fill-opacity="0.501961" cx="154" cy="133" rx="21" ry="21" />
<ellipse fill="#573b38" fill-opacity="0.501961" cx="170" cy="152" rx="23" ry="23" />
<ellipse fill="#ffdfce" fill-opacity="0.501961" cx="227" cy="175" rx="8" ry="8" />
<ellipse fill="#ffffac" fill-opacity="0.501961" cx="0" cy="142" rx="12" ry="12" />
<ellipse fill="#aa352e" fill-opacity="0.501961" cx="45" cy="200" rx="15" ry="15" />
<ellipse fill="#fcc14c" fill-opacity="0.501961" cx="0" cy="67" rx="12" ry="12" />
<ellipse fill="#965b14" fill-opacity="0.501961" cx="227" cy="227" rx="9" ry="9" />
<ellipse fill="#fffffc" fill-opacity="0.501961" cx="21" cy="80" rx="16" ry="16" />
<ellipse fill="#250000" fill-opacity="0.501961" cx="224" cy="161" rx="6" ry="6" />
<ellipse fill="#fff5df" fill-opacity="0.501961" cx="111" cy="77" rx="7" ry="7" />
<ellipse fill="#6c261f" fill-opacity="0.501961" cx="95" cy="165" rx="8" ry="8" />
<ellipse fill="#5c3b2e" fill-opacity="0.501961" cx="168" cy="99" rx="16" ry="16" />
<ellipse fill="#250600" fill-opacity="0.501961" cx="201" cy="162" rx="13" ry="13" />
<ellipse fill="#4e363a" fill-opacity="0.501961" cx="99" cy="14" rx="14" ry="14" />
<ellipse fill="#ffc75f" fill-opacity="0.501961" cx="56" cy="103" rx="15" ry="15" />
<ellipse fill="#463200" fill-opacity="0.501961" cx="250" cy="255" rx="9" ry="9" />
<ellipse fill="#d4a5a4" fill-opacity="0.501961" cx="212" cy="218" rx="11" ry="11" />
<ellipse fill="#fffb77" fill-opacity="0.501961" cx="0" cy="158" rx="7" ry="7" />
<ellipse fill="#4b251c" fill-opacity="0.501961" cx="76" cy="71" rx="13" ry="13" />
<ellipse fill="#ffcbcb" fill-opacity="0.501961" cx="241" cy="145" rx="9" ry="9" />
<ellipse fill="#ffbb48" fill-opacity="0.501961" cx="244" cy="237" rx="12" ry="12" />
<ellipse fill="#ffc44b" fill-opacity="0.501961" cx="51" cy="67" rx="14" ry="14" />
<ellipse fill="#cda067" fill-opacity="0.501961" cx="134" cy="155" rx="6" ry="6" />
<ellipse fill="#ffba3f" fill-opacity="0.501961" cx="210" cy="67" rx="6" ry="6" />
<ellipse fill="#8b3c1b" fill-opacity="0.501961" cx="204" cy="56" rx="9" ry="9" />
<ellipse fill="#fffff9" fill-opacity="0.501961" cx="3" cy="18" rx="23" ry="23" />
<ellipse fill="#df9f8a" fill-opacity="0.501961" cx="122" cy="111" rx="12" ry="12" />
<ellipse fill="#691002" fill-opacity="0.501961" cx="235" cy="160" rx="7" ry="7" />
<ellipse fill="#2b0d00" fill-opacity="0.501961" cx="198" cy="85" rx="17" ry="17" />
<ellipse fill="#dcb671" fill-opacity="0.501961" cx="108" cy="150" rx="6" ry="6" />
<ellipse fill="#e3a986" fill-opacity="0.501961" cx="93" cy="62" rx="6" ry="6" />
<ellipse fill="#270400" fill-opacity="0.501961" cx="124" cy="16" rx="8" ry="8" />
<ellipse fill="#9a342a" fill-opacity="0.501961" cx="187" cy="239" rx="9" ry="9" />
<ellipse fill="#9d473f" fill-opacity="0.501961" cx="83" cy="139" rx="14" ry="14" />
<ellipse fill="#3f1003" fill-opacity="0.501961" cx="90" cy="118" rx="12" ry="12" />
<ellipse fill="#f8be85" fill-opacity="0.501961" cx="143" cy="47" rx="8" ry="8" />
<ellipse fill="#c9914a" fill-opacity="0.501961" cx="214" cy="172" rx="5" ry="5" />
<ellipse fill="#f5c6a4" fill-opacity="0.501961" cx="114" cy="41" rx="15" ry="15" />
<ellipse fill="#632e17" fill-opacity="0.501961" cx="235" cy="188" rx="6" ry="6" />
<ellipse fill="#ffded1" fill-opacity="0.501961" cx="249" cy="166" rx="7" ry="7" />
<ellipse fill="#de9d14" fill-opacity="0.501961" cx="185" cy="16" rx="6" ry="6" />
<ellipse fill="#c07a53" fill-opacity="0.501961" cx="110" cy="94" rx="14" ry="14" />
<ellipse fill="#ac6540" fill-opacity="0.501961" cx="143" cy="90" rx="10" ry="10" />
<ellipse fill="#873627" fill-opacity="0.501961" cx="94" cy="255" rx="12" ry="12" />
<ellipse fill="#c76559" fill-opacity="0.501961" cx="122" cy="220" rx="30" ry="30" />
<ellipse fill="#ffc571" fill-opacity="0.501961" cx="230" cy="244" rx="8" ry="8" />
<ellipse fill="#240c04" fill-opacity="0.501961" cx="85" cy="42" rx="11" ry="11" />
<ellipse fill="#030000" fill-opacity="0.501961" cx="170" cy="75" rx="8" ry="8" />
<ellipse fill="#822e29" fill-opacity="0.501961" cx="87" cy="178" rx="7" ry="7" />
<ellipse fill="#d37a6a" fill-opacity="0.501961" cx="79" cy="163" rx="13" ry="13" />
<ellipse fill="#ffdc90" fill-opacity="0.501961" cx="21" cy="54" rx="13" ry="13" />
<ellipse fill="#c1a26a" fill-opacity="0.501961" cx="255" cy="125" rx="18" ry="18" />
<ellipse fill="#6d4d41" fill-opacity="0.501961" cx="148" cy="7" rx="16" ry="16" />
<ellipse fill="#ffffc3" fill-opacity="0.501961" cx="0" cy="126" rx="15" ry="15" />
<ellipse fill="#ffff53" fill-opacity="0.501961" cx="190" cy="0" rx="6" ry="6" />
<ellipse fill="#97361b" fill-opacity="0.501961" cx="122" cy="109" rx="4" ry="4" />
<ellipse fill="#ae3332" fill-opacity="0.501961" cx="47" cy="224" rx="13" ry="13" />
<ellipse fill="#ffd4b8" fill-opacity="0.501961" cx="221" cy="186" rx="8" ry="8" />
<ellipse fill="#673f35" fill-opacity="0.501961" cx="166" cy="197" rx="9" ry="9" />
<ellipse fill="#ffff93" fill-opacity="0.501961" cx="0" cy="102" rx="11" ry="11" />
<ellipse fill="#e4a988" fill-opacity="0.501961" cx="97" cy="53" rx="5" ry="5" />
<ellipse fill="#8b4010" fill-opacity="0.501961" cx="119" cy="142" rx="11" ry="11" />
<ellipse fill="#380d03" fill-opacity="0.501961" cx="69" cy="116" rx="5" ry="5" />
<ellipse fill="#8a5304" fill-opacity="0.501961" cx="255" cy="212" rx="12" ry="12" />
<ellipse fill="#ffc261" fill-opacity="0.501961" cx="56" cy="19" rx="21" ry="21" />
<ellipse fill="#f8d0c0" fill-opacity="0.501961" cx="123" cy="77" rx="10" ry="10" />
<ellipse fill="#c47f65" fill-opacity="0.501961" cx="139" cy="108" rx="8" ry="8" />
<ellipse fill="#311506" fill-opacity="0.501961" cx="165" cy="36" rx="17" ry="17" />
<ellipse fill="#e9b89e" fill-opacity="0.501961" cx="199" cy="252" rx="9" ry="9" />
<ellipse fill="#ffff78" fill-opacity="0.501961" cx="72" cy="1" rx="16" ry="16" />
<ellipse fill="#ffdcbf" fill-opacity="0.501961" cx="149" cy="78" rx="7" ry="7" />
<ellipse fill="#c76e67" fill-opacity="0.501961" cx="26" cy="158" rx="22" ry="22" />
<ellipse fill="#dd7874" fill-opacity="0.501961" cx="71" cy="201" rx="16" ry="16" />
<ellipse fill="#ffcf36" fill-opacity="0.501961" cx="255" cy="24" rx="28" ry="28" />
<ellipse fill="#ebce70" fill-opacity="0.501961" cx="222" cy="89" rx="7" ry="7" />
<ellipse fill="#8f6202" fill-opacity="0.501961" cx="232" cy="90" rx="6" ry="6" />
<ellipse fill="#4a1e0f" fill-opacity="0.501961" cx="72" cy="60" rx="11" ry="11" />
<ellipse fill="#361307" fill-opacity="0.501961" cx="139" cy="20" rx="7" ry="7" />
<ellipse fill="#ca988f" fill-opacity="0.501961" cx="207" cy="231" rx="11" ry="11" />
<ellipse fill="#917263" fill-opacity="0.501961" cx="189" cy="186" rx="4" ry="4" />
<ellipse fill="#381005" fill-opacity="0.501961" cx="182" cy="222" rx="17" ry="17" />
<ellipse fill="#ffed7e" fill-opacity="0.501961" cx="0" cy="85" rx="8" ry="8" />
<ellipse fill="#ffffff" fill-opacity="0.501961" cx="21" cy="105" rx="17" ry="17" />
<ellipse fill="#fffeb0" fill-opacity="0.501961" cx="32" cy="40" rx="12" ry="12" />
<ellipse fill="#2e1103" fill-opacity="0.501961" cx="201" cy="120" rx="19" ry="19" />
<ellipse fill="#dd9700" fill-opacity="0.501961" cx="240" cy="53" rx="8" ry="8" />
<ellipse fill="#570803" fill-opacity="0.501961" cx="146" cy="170" rx="10" ry="10" />
<ellipse fill="#e4a882" fill-opacity="0.501961" cx="72" cy="125" rx="4" ry="4" />
<ellipse fill="#6e2d1a" fill-opacity="0.501961" cx="204" cy="214" rx="4" ry="4" />
<ellipse fill="#9b5e3d" fill-opacity="0.501961" cx="217" cy="244" rx="6" ry="6" />
<ellipse fill="#e29d30" fill-opacity="0.501961" cx="69" cy="27" rx="8" ry="8" />
<ellipse fill="#ffec62" fill-opacity="0.501961" cx="229" cy="135" rx="8" ry="8" />
<ellipse fill="#631618" fill-opacity="0.501961" cx="97" cy="153" rx="6" ry="6" />
<ellipse fill="#e9c872" fill-opacity="0.501961" cx="222" cy="107" rx="6" ry="6" />
<ellipse fill="#82211e" fill-opacity="0.501961" cx="46" cy="249" rx="9" ry="9" />
<ellipse fill="#ffe36a" fill-opacity="0.501961" cx="236" cy="69" rx="12" ry="12" />
<ellipse fill="#ac4535" fill-opacity="0.501961" cx="49" cy="183" rx="13" ry="13" />
<ellipse fill="#3b1704" fill-opacity="0.501961" cx="209" cy="152" rx="14" ry="14" />
<ellipse fill="#a8473d" fill-opacity="0.501961" cx="85" cy="146" rx="12" ry="12" />
<ellipse fill="#583317" fill-opacity="0.501961" cx="205" cy="182" rx="9" ry="9" />
<ellipse fill="#993b2d" fill-opacity="0.501961" cx="129" cy="109" rx="4" ry="4" />
<ellipse fill="#8a5f1b" fill-opacity="0.501961" cx="233" cy="226" rx="6" ry="6" />
<ellipse fill="#e1842b" fill-opacity="0.501961" cx="68" cy="82" rx="5" ry="5" />
<ellipse fill="#ffef41" fill-opacity="0.501961" cx="181" cy="0" rx="4" ry="4" />
<ellipse fill="#fffe62" fill-opacity="0.501961" cx="224" cy="55" rx="7" ry="7" />
<ellipse fill="#fdbe28" fill-opacity="0.501961" cx="188" cy="21" rx="4" ry="4" />
<ellipse fill="#c56f44" fill-opacity="0.501961" cx="223" cy="147" rx="7" ry="7" />
<ellipse fill="#e0a224" fill-opacity="0.501961" cx="255" cy="88" rx="13" ry="13" />
<ellipse fill="#8e6c5c" fill-opacity="0.501961" cx="189" cy="149" rx="5" ry="5" />
<ellipse fill="#782d13" fill-opacity="0.501961" cx="214" cy="59" rx="4" ry="4" />
<ellipse fill="#65361d" fill-opacity="0.501961" cx="143" cy="59" rx="6" ry="6" />
<ellipse fill="#190803" fill-opacity="0.501961" cx="168" cy="131" rx="9" ry="9" />
<ellipse fill="#600f0b" fill-opacity="0.501961" cx="238" cy="159" rx="5" ry="5" />
<ellipse fill="#903729" fill-opacity="0.501961" cx="149" cy="255" rx="8" ry="8" />
<ellipse fill="#9b5317" fill-opacity="0.501961" cx="120" cy="61" rx="5" ry="5" />
<ellipse fill="#7a4a5f" fill-opacity="0.501961" cx="61" cy="121" rx="6" ry="6" />
<ellipse fill="#fdcda2" fill-opacity="0.501961" cx="140" cy="90" rx="4" ry="4" />
<ellipse fill="#ea8782" fill-opacity="0.501961" cx="13" cy="183" rx="9" ry="9" />
<ellipse fill="#ffe270" fill-opacity="0.501961" cx="223" cy="78" rx="5" ry="5" />
<ellipse fill="#fcd4b5" fill-opacity="0.501961" cx="127" cy="118" rx="5" ry="5" />
<ellipse fill="#220a00" fill-opacity="0.501961" cx="177" cy="176" rx="8" ry="8" />
<ellipse fill="#ffe250" fill-opacity="0.501961" cx="212" cy="0" rx="21" ry="21" />
<ellipse fill="#ffd0b3" fill-opacity="0.501961" cx="241" cy="172" rx="7" ry="7" />
<ellipse fill="#7e5426" fill-opacity="0.501961" cx="251" cy="185" rx="13" ry="13" />
<ellipse fill="#6c3a28" fill-opacity="0.501961" cx="84" cy="97" rx="11" ry="11" />
<ellipse fill="#bc474b" fill-opacity="0.501961" cx="13" cy="253" rx="20" ry="20" />
<ellipse fill="#bd594d" fill-opacity="0.501961" cx="92" cy="227" rx="15" ry="15" />
<ellipse fill="#f9ceb2" fill-opacity="0.501961" cx="218" cy="192" rx="9" ry="9" />
<ellipse fill="#832f0d" fill-opacity="0.501961" cx="215" cy="73" rx="4" ry="4" />
<ellipse fill="#411905" fill-opacity="0.501961" cx="190" cy="12" rx="4" ry="4" />
<ellipse fill="#f7c8ac" fill-opacity="0.501961" cx="215" cy="209" rx="8" ry="8" />
<ellipse fill="#734742" fill-opacity="0.501961" cx="159" cy="162" rx="8" ry="8" />
<ellipse fill="#f1c4a8" fill-opacity="0.501961" cx="111" cy="73" rx="10" ry="10" />
<ellipse fill="#ffaf74" fill-opacity="0.501961" cx="47" cy="0" rx="17" ry="17" />
<ellipse fill="#95322c" fill-opacity="0.501961" cx="114" cy="255" rx="8" ry="8" />
<ellipse fill="#1c0000" fill-opacity="0.501961" cx="112" cy="95" rx="2" ry="2" />
<ellipse fill="#800007" fill-opacity="0.501961" cx="232" cy="146" rx="2" ry="2" />
<ellipse fill="#e3b781" fill-opacity="0.501961" cx="116" cy="156" rx="4" ry="4" />
<ellipse fill="#ffffff" fill-opacity="0.501961" cx="13" cy="122" rx="6" ry="6" />
<ellipse fill="#4d0007" fill-opacity="0.501961" cx="142" cy="96" rx="3" ry="3" />
<ellipse fill="#370d00" fill-opacity="0.501961" cx="100" cy="137" rx="4" ry="4" />
<ellipse fill="#f6ccab" fill-opacity="0.501961" cx="118" cy="115" rx="5" ry="5" />
<ellipse fill="#904429" fill-opacity="0.501961" cx="123" cy="92" rx="6" ry="6" />
<ellipse fill="#e8bb9a" fill-opacity="0.501961" cx="115" cy="90" rx="5" ry="5" />
<ellipse fill="#d07676" fill-opacity="0.501961" cx="31" cy="142" rx="21" ry="21" />
<ellipse fill="#a36543" fill-opacity="0.501961" cx="108" cy="67" rx="4" ry="4" />
<ellipse fill="#d27169" fill-opacity="0.501961" cx="100" cy="193" rx="18" ry="18" />
<ellipse fill="#5e403c" fill-opacity="0.501961" cx="180" cy="137" rx="9" ry="9" />
<ellipse fill="#f1b53e" fill-opacity="0.501961" cx="210" cy="66" rx="6" ry="6" />
<ellipse fill="#dc8284" fill-opacity="0.501961" cx="51" cy="128" rx="10" ry="10" />
<ellipse fill="#fff78e" fill-opacity="0.501961" cx="45" cy="111" rx="9" ry="9" />
<ellipse fill="#95490e" fill-opacity="0.501961" cx="106" cy="90" rx="4" ry="4" />
<ellipse fill="#c96257" fill-opacity="0.501961" cx="58" cy="156" rx="22" ry="22" />
<ellipse fill="#e5ae90" fill-opacity="0.501961" cx="110" cy="102" rx="5" ry="5" />
<ellipse fill="#ffc054" fill-opacity="0.501961" cx="53" cy="61" rx="13" ry="13" />
<ellipse fill="#64311b" fill-opacity="0.501961" cx="103" cy="59" rx="5" ry="5" />
<ellipse fill="#1e0500" fill-opacity="0.501961" cx="195" cy="170" rx="9" ry="9" />
<ellipse fill="#9a5825" fill-opacity="0.501961" cx="136" cy="61" rx="5" ry="5" />
<ellipse fill="#c18158" fill-opacity="0.501961" cx="102" cy="36" rx="5" ry="5" />
<ellipse fill="#c8855b" fill-opacity="0.501961" cx="126" cy="25" rx="4" ry="4" />
<ellipse fill="#84391c" fill-opacity="0.501961" cx="107" cy="121" rx="8" ry="8" />
<ellipse fill="#fbd4b2" fill-opacity="0.501961" cx="135" cy="116" rx="4" ry="4" />
<ellipse fill="#ca6a63" fill-opacity="0.501961" cx="63" cy="220" rx="11" ry="11" />
<ellipse fill="#94372c" fill-opacity="0.501961" cx="189" cy="237" rx="7" ry="7" />
<ellipse fill="#ffa50e" fill-opacity="0.501961" cx="203" cy="45" rx="4" ry="4" />
<ellipse fill="#483849" fill-opacity="0.501961" cx="99" cy="8" rx="9" ry="9" />
<ellipse fill="#feb428" fill-opacity="0.501961" cx="230" cy="19" rx="9" ry="9" />
<ellipse fill="#feb2b6" fill-opacity="0.501961" cx="228" cy="151" rx="4" ry="4" />
<ellipse fill="#3c0602" fill-opacity="0.501961" cx="150" cy="181" rx="9" ry="9" />
<ellipse fill="#833f3b" fill-opacity="0.501961" cx="66" cy="131" rx="5" ry="5" />
<ellipse fill="#a13733" fill-opacity="0.501961" cx="184" cy="248" rx="8" ry="8" />
<ellipse fill="#ffda5a" fill-opacity="0.501961" cx="226" cy="125" rx="7" ry="7" />
<ellipse fill="#b52e2c" fill-opacity="0.501961" cx="137" cy="190" rx="6" ry="6" />
<ellipse fill="#cc6156" fill-opacity="0.501961" cx="142" cy="235" rx="13" ry="13" />
<ellipse fill="#3b1b0d" fill-opacity="0.501961" cx="84" cy="42" rx="13" ry="13" />
<ellipse fill="#d28f00" fill-opacity="0.501961" cx="255" cy="62" rx="9" ry="9" />
<ellipse fill="#1f0200" fill-opacity="0.501961" cx="139" cy="138" rx="8" ry="8" />
<ellipse fill="#d5933b" fill-opacity="0.501961" cx="232" cy="212" rx="12" ry="12" />
<ellipse fill="#2f0200" fill-opacity="0.501961" cx="98" cy="128" rx="4" ry="4" />
<ellipse fill="#ffca6b" fill-opacity="0.501961" cx="242" cy="237" rx="7" ry="7" />
<ellipse fill="#3a0c03" fill-opacity="0.501961" cx="196" cy="28" rx="3" ry="3" />
<ellipse fill="#fbc756" fill-opacity="0.501961" cx="216" cy="166" rx="2" ry="2" />
<ellipse fill="#d36663" fill-opacity="0.501961" cx="18" cy="218" rx="23" ry="23" />
<ellipse fill="#352220" fill-opacity="0.501961" cx="172" cy="151" rx="11" ry="11" />
<ellipse fill="#ab864e" fill-opacity="0.501961" cx="240" cy="196" rx="7" ry="7" />
<ellipse fill="#7a532f" fill-opacity="0.501961" cx="206" cy="156" rx="4" ry="4" />
<ellipse fill="#643e25" fill-opacity="0.501961" cx="194" cy="53" rx="9" ry="9" />
<ellipse fill="#ffd9bd" fill-opacity="0.501961" cx="104" cy="77" rx="8" ry="8" />
<ellipse fill="#c78050" fill-opacity="0.501961" cx="32" cy="0" rx="6" ry="6" />
<ellipse fill="#321a11" fill-opacity="0.501961" cx="81" cy="58" rx="10" ry="10" />
<ellipse fill="#886d7c" fill-opacity="0.501961" cx="135" cy="8" rx="4" ry="4" />
<ellipse fill="#a38d43" fill-opacity="0.501961" cx="231" cy="162" rx="3" ry="3" />
<ellipse fill="#120000" fill-opacity="0.501961" cx="144" cy="122" rx="5" ry="5" />
<ellipse fill="#ffe184" fill-opacity="0.501961" cx="223" cy="115" rx="3" ry="3" />
<ellipse fill="#772c00" fill-opacity="0.501961" cx="150" cy="90" rx="3" ry="3" />
<ellipse fill="#e49453" fill-opacity="0.501961" cx="61" cy="108" rx="9" ry="9" />
<ellipse fill="#7e3218" fill-opacity="0.501961" cx="217" cy="64" rx="3" ry="3" />
<ellipse fill="#b97c5d" fill-opacity="0.501961" cx="147" cy="68" rx="4" ry="4" />
<ellipse fill="#73564b" fill-opacity="0.501961" cx="178" cy="114" rx="4" ry="4" />
<ellipse fill="#49262b" fill-opacity="0.501961" cx="194" cy="18" rx="3" ry="3" />
<ellipse fill="#ffe05f" fill-opacity="0.501961" cx="0" cy="165" rx="4" ry="4" />
<ellipse fill="#e3beae" fill-opacity="0.501961" cx="127" cy="103" rx="5" ry="5" />
<ellipse fill="#a67716" fill-opacity="0.501961" cx="237" cy="96" rx="10" ry="10" />
<ellipse fill="#ffe94f" fill-opacity="0.501961" cx="255" cy="34" rx="15" ry="15" />
<ellipse fill="#734739" fill-opacity="0.501961" cx="165" cy="173" rx="6" ry="6" />
<ellipse fill="#ffd22f" fill-opacity="0.501961" cx="209" cy="19" rx="11" ry="11" />
<ellipse fill="#513432" fill-opacity="0.501961" cx="83" cy="80" rx="10" ry="10" />
<ellipse fill="#eeb682" fill-opacity="0.501961" cx="141" cy="40" rx="6" ry="6" />
<ellipse fill="#e7b879" fill-opacity="0.501961" cx="20" cy="56" rx="6" ry="6" />
<ellipse fill="#612f2d" fill-opacity="0.501961" cx="162" cy="225" rx="8" ry="8" />
<ellipse fill="#ffff8c" fill-opacity="0.501961" cx="87" cy="0" rx="4" ry="4" />
<ellipse fill="#5e1812" fill-opacity="0.501961" cx="94" cy="170" rx="4" ry="4" />
<ellipse fill="#4b2715" fill-opacity="0.501961" cx="198" cy="197" rx="11" ry="11" />
<ellipse fill="#410f0c" fill-opacity="0.501961" cx="146" cy="154" rx="7" ry="7" />
<ellipse fill="#ffff86" fill-opacity="0.501961" cx="0" cy="150" rx="6" ry="6" />
<ellipse fill="#ffffc3" fill-opacity="0.501961" cx="37" cy="84" rx="6" ry="6" />
<ellipse fill="#4f230c" fill-opacity="0.501961" cx="179" cy="25" rx="6" ry="6" />
<ellipse fill="#fdd5c5" fill-opacity="0.501961" cx="232" cy="173" rx="6" ry="6" />
<ellipse fill="#701d20" fill-opacity="0.501961" cx="115" cy="97" rx="3" ry="3" />
<ellipse fill="#e4887e" fill-opacity="0.501961" cx="70" cy="163" rx="6" ry="6" />
<ellipse fill="#84542b" fill-opacity="0.501961" cx="241" cy="255" rx="8" ry="8" />
<ellipse fill="#682000" fill-opacity="0.501961" cx="134" cy="89" rx="3" ry="3" />
<ellipse fill="#381809" fill-opacity="0.501961" cx="163" cy="59" rx="9" ry="9" />
<ellipse fill="#99794a" fill-opacity="0.501961" cx="91" cy="138" rx="6" ry="6" />
<ellipse fill="#3c1a0d" fill-opacity="0.501961" cx="160" cy="113" rx="12" ry="12" />
</g>
</svg>