<svg xmlns="http://www.w3.org/2000/svg" version="1.1" width="256" height="256">
<rect x="0" y="0" width="256" height="256" fill="#a1833b" />
<g transform="scale(1.000000) translate(0.5 0.5)">
<ellipse fill="#050006" fill-opacity="0.501961" cx="170" cy="125" rx="46" ry="46" />
<ellipse fill="#c7d8e8" fill-opacity="0.501961" cx="111" cy="211" rx="43" ry="43" />
<ellipse fill="#ffff26" fill-opacity="0.501961" cx="11" cy="50" rx="71" ry="71" />
<ellipse fill="#ffff00" fill-opacity="0.501961" cx="211" cy="31" rx="34" ry="34" />
<ellipse fill="#4e1708" fill-opacity="0.501961" cx="169" cy="204" rx="38" ry="38" />
<ellipse fill="#f0c7d8" fill-opacity="0.501961" cx="127" cy="53" rx="31" ry="31" />
<ellipse fill="#d0ffff" fill-opacity="0.501961" cx="113" cy="165" rx="23" ry="23" />
<ellipse fill="#000000" fill-opacity="0.501961" cx="164" cy="74" rx="19" ry="19" />
<ellipse fill="#485000" fill-opacity="0.501961" cx="255" cy="110" rx="50" ry="50" />
<ellipse fill="#8f5400" fill-opacity="0.501961" cx="37" cy="206" rx="54" ry="54" />
<ellipse fill="#060008" fill-opacity="0.501961" cx="81" cy="111" rx="16" ry="16" />
<ellipse fill="#ffc500" fill-opacity="0.501961" cx="39" cy="104" rx="30" ry="30" />
<ellipse fill="#fff646" fill-opacity="0.501961" cx="77" cy="0" rx="29" ry="29" />
<ellipse fill="#ffd355" fill-opacity="0.501961" cx="36" cy="30" rx="48" ry="48" />
<ellipse fill="#99d2ff" fill-opacity="0.501961" cx="109" cy="241" rx="26" ry="26" />
<ellipse fill="#d7a339" fill-opacity="0.501961" cx="217" cy="112" rx="23" ry="23" />
<ellipse fill="#d19e9a" fill-opacity="0.501961" cx="116" cy="79" rx="32" ry="32" />
<ellipse fill="#050000" fill-opacity="0.501961" cx="164" cy="114" rx="29" ry="29" />
<ellipse fill="#916900" fill-opacity="0.501961" cx="0" cy="124" rx="36" ry="36" />
<ellipse fill="#bae7ff" fill-opacity="0.501961" cx="112" cy="200" rx="21" ry="21" />
<ellipse fill="#e6c76a" fill-opacity="0.501961" cx="242" cy="191" rx="27" ry="27" />
<ellipse fill="#403142" fill-opacity="0.501961" cx="106" cy="35" rx="19" ry="19" />
<ellipse fill="#1e3d57" fill-opacity="0.501961" cx="254" cy="154" rx="29" ry="29" />
<ellipse fill="#471d05" fill-opacity="0.501961" cx="39" cy="251" rx="28" ry="28" />
<ellipse fill="#ffe5c2" fill-opacity="0.501961" cx="136" cy="38" rx="19" ry="19" />
<ellipse fill="#ffff12" fill-opacity="0.501961" cx="193" cy="0" rx="24" ry="24" />
<ellipse fill="#452423" fill-opacity="0.501961" cx="182" cy="175" rx="32" ry="32" />
<ellipse fill="#f7a617" fill-opacity="0.501961" cx="146" cy="229" rx="15" ry="15" />
<ellipse fill="#d1ccf0" fill-opacity="0.501961" cx="83" cy="150" rx="12" ry="12" />
<ellipse fill="#9c3300" fill-opacity="0.501961" cx="229" cy="233" rx="20" ry="20" />
<ellipse fill="#3d2446" fill-opacity="0.501961" cx="140" cy="0" rx="23" ry="23" />
<ellipse fill="#daa051" fill-opacity="0.501961" cx="141" cy="156" rx="14" ry="14" />
<ellipse fill="#642e54" fill-opacity="0.501961" cx="174" cy="43" rx="17" ry="17" />
<ellipse fill="#fff100" fill-opacity="0.501961" cx="215" cy="54" rx="21" ry="21" />
<ellipse fill="#7e7d00" fill-opacity="0.501961" cx="255" cy="39" rx="32" ry="32" />
<ellipse fill="#f5e42f" fill-opacity="0.501961" cx="0" cy="232" rx="20" ry="20" />
<ellipse fill="#000000" fill-opacity="0.501961" cx="80" cy="92" rx="9" ry="9" />
<ellipse fill="#431901" fill-opacity="0.501961" cx="142" cy="63" rx="8" ry="8" />
<ellipse fill="#97afb2" fill-opacity="0.501961" cx="255" cy="172" rx="19" ry="19" />
<ellipse fill="#d09336" fill-opacity="0.501961" cx="70" cy="198" rx="23" ry="23" />
<ellipse fill="#1d3006" fill-opacity="0.501961" cx="0" cy="165" rx="17" ry="17" />
<ellipse fill="#c0dafe" fill-opacity="0.501961" cx="112" cy="168" rx="20" ry="20" />
<ellipse fill="#2e1305" fill-opacity="0.501961" cx="120" cy="49" rx="7" ry="7" />
<ellipse fill="#351400" fill-opacity="0.501961" cx="77" cy="76" rx="9" ry="9" />
<ellipse fill="#f9d005" fill-opacity="0.501961" cx="43" cy="91" rx="30" ry="30" />
<ellipse fill="#e1930d" fill-opacity="0.501961" cx="143" cy="201" rx="13" ry="13" />
<ellipse fill="#ffff2d" fill-opacity="0.501961" cx="202" cy="29" rx="18" ry="18" />
<ellipse fill="#200c22" fill-opacity="0.501961" cx="114" cy="15" rx="11" ry="11" />
<ellipse fill="#9d6d66" fill-opacity="0.501961" cx="102" cy="129" rx="23" ry="23" />
<ellipse fill="#ddb100" fill-opacity="0.501961" cx="72" cy="28" rx="15" ry="15" />
<ellipse fill="#0e0019" fill-opacity="0.501961" cx="82" cy="63" rx="7" ry="7" />
<ellipse fill="#000000" fill-opacity="0.501961" cx="87" cy="43" rx="7" ry="7" />
<ellipse fill="#d99935" fill-opacity="0.501961" cx="52" cy="150" rx="22" ry="22" />
<ellipse fill="#252100" fill-opacity="0.501961" cx="241" cy="138" rx="15" ry="15" />
<ellipse fill="#f4dbd4" fill-opacity="0.501961" cx="100" cy="53" rx="9" ry="9" />
<ellipse fill="#ffdba0" fill-opacity="0.501961" cx="144" cy="79" rx="9" ry="9" />
<ellipse fill="#dbec27" fill-opacity="0.501961" cx="3" cy="206" rx="13" ry="13" />
<ellipse fill="#b67d68" fill-opacity="0.501961" cx="201" cy="95" rx="14" ry="14" />
<ellipse fill="#020000" fill-opacity="0.501961" cx="167" cy="89" rx="18" ry="18" />
<ellipse fill="#fdc06e" fill-opacity="0.501961" cx="13" cy="0" rx="48" ry="48" />
<ellipse fill="#040000" fill-opacity="0.501961" cx="165" cy="51" rx="8" ry="8" />
<ellipse fill="#68291d" fill-opacity="0.501961" cx="175" cy="246" rx="15" ry="15" />
<ellipse fill="#703a08" fill-opacity="0.501961" cx="31" cy="228" rx="20" ry="20" />
<ellipse fill="#ffed5c" fill-opacity="0.501961" cx="93" cy="1" rx="17" ry="17" />
<ellipse fill="#904a04" fill-opacity="0.501961" cx="82" cy="176" rx="13" ry="13" />
<ellipse fill="#535c00" fill-opacity="0.501961" cx="252" cy="83" rx="29" ry="29" />
<ellipse fill="#e79420" fill-opacity="0.501961" cx="221" cy="196" rx="20" ry="20" />
<ellipse fill="#ac7857" fill-opacity="0.501961" cx="214" cy="133" rx="14" ry="14" />
<ellipse fill="#62343b" fill-opacity="0.501961" cx="160" cy="20" rx="14" ry="14" />
<ellipse fill="#0f0000" fill-opacity="0.501961" cx="75" cy="126" rx="7" ry="7" />
<ellipse fill="#cd8921" fill-opacity="0.501961" cx="142" cy="185" rx="11" ry="11" />
<ellipse fill="#0e0000" fill-opacity="0.501961" cx="101" cy="29" rx="8" ry="8" />
<ellipse fill="#af7573" fill-opacity="0.501961" cx="186" cy="60" rx="12" ry="12" />
<ellipse fill="#6b3322" fill-opacity="0.501961" cx="116" cy="80" rx="7" ry="7" />
<ellipse fill="#d19c00" fill-opacity="0.501961" cx="2" cy="128" rx="18" ry="18" />
<ellipse fill="#9bb8e1" fill-opacity="0.501961" cx="127" cy="149" rx="8" ry="8" />
<ellipse fill="#fffbcd" fill-opacity="0.501961" cx="127" cy="68" rx="10" ry="10" />
<ellipse fill="#ffe68f" fill-opacity="0.501961" cx="1" cy="247" rx="10" ry="10" />
<ellipse fill="#ffd03b" fill-opacity="0.501961" cx="254" cy="224" rx="10" ry="10" />
<ellipse fill="#230300" fill-opacity="0.501961" cx="136" cy="115" rx="13" ry="13" />
<ellipse fill="#feb235" fill-opacity="0.501961" cx="198" cy="247" rx="11" ry="11" />
<ellipse fill="#e5b5a8" fill-opacity="0.501961" cx="109" cy="96" rx="13" ry="13" />
<ellipse fill="#e59f2e" fill-opacity="0.501961" cx="147" cy="241" rx="14" ry="14" />
<ellipse fill="#ffdc40" fill-opacity="0.501961" cx="31" cy="51" rx="31" ry="31" />
<ellipse fill="#f1caad" fill-opacity="0.501961" cx="127" cy="31" rx="14" ry="14" />
<ellipse fill="#5a3627" fill-opacity="0.501961" cx="178" cy="144" rx="27" ry="27" />
<ellipse fill="#0c0013" fill-opacity="0.501961" cx="84" cy="52" rx="5" ry="5" />
<ellipse fill="#020000" fill-opacity="0.501961" cx="165" cy="68" rx="10" ry="10" />
<ellipse fill="#897f00" fill-opacity="0.501961" cx="233" cy="9" rx="16" ry="16" />
<ellipse fill="#4e3739" fill-opacity="0.501961" cx="173" cy="217" rx="18" ry="18" />
<ellipse fill="#6b5400" fill-opacity="0.501961" cx="28" cy="132" rx="11" ry="11" />
<ellipse fill="#bb8026" fill-opacity="0.501961" cx="74" cy="230" rx="15" ry="15" />
<ellipse fill="#580c00" fill-opacity="0.501961" cx="235" cy="249" rx="8" ry="8" />
<ellipse fill="#ffca63" fill-opacity="0.501961" cx="221" cy="166" rx="8" ry="8" />
<ellipse fill="#ffdc4f" fill-opacity="0.501961" cx="242" cy="209" rx="10" ry="10" />
<ellipse fill="#fff400" fill-opacity="0.501961" cx="186" cy="2" rx="16" ry="16" />
<ellipse fill="#b27e6e" fill-opacity="0.501961" cx="173" cy="26" rx="10" ry="10" />
<ellipse fill="#100000" fill-opacity="0.501961" cx="76" cy="114" rx="9" ry="9" />
<ellipse fill="#947774" fill-opacity="0.501961" cx="101" cy="81" rx="17" ry="17" />
<ellipse fill="#956c00" fill-opacity="0.501961" cx="2" cy="97" rx="16" ry="16" />
<ellipse fill="#6a93aa" fill-opacity="0.501961" cx="255" cy="8" rx="9" ry="9" />
<ellipse fill="#a79200" fill-opacity="0.501961" cx="232" cy="114" rx="15" ry="15" />
<ellipse fill="#472310" fill-opacity="0.501961" cx="102" cy="114" rx="7" ry="7" />
<ellipse fill="#cb984e" fill-opacity="0.501961" cx="22" cy="157" rx="10" ry="10" />
<ellipse fill="#c6dbe5" fill-opacity="0.501961" cx="111" cy="177" rx="19" ry="19" />
<ellipse fill="#ffe2bd" fill-opacity="0.501961" cx="145" cy="39" rx="13" ry="13" />
<ellipse fill="#f8e906" fill-opacity="0.501961" cx="213" cy="45" rx="20" ry="20" />
<ellipse fill="#080612" fill-opacity="0.501961" cx="62" cy="174" rx="5" ry="5" />
<ellipse fill="#0c0105" fill-opacity="0.501961" cx="92" cy="36" rx="7" ry="7" />
<ellipse fill="#e5c2a0" fill-opacity="0.501961" cx="0" cy="15" rx="16" ry="16" />
<ellipse fill="#442f20" fill-opacity="0.501961" cx="174" cy="184" rx="25" ry="25" />
<ellipse fill="#eac406" fill-opacity="0.501961" cx="39" cy="102" rx="27" ry="27" />
<ellipse fill="#b0691e" fill-opacity="0.501961" cx="214" cy="215" rx="18" ry="18" />
<ellipse fill="#e3ece3" fill-opacity="0.501961" cx="78" cy="156" rx="7" ry="7" />
<ellipse fill="#b5cfdd" fill-opacity="0.501961" cx="109" cy="212" rx="20" ry="20" />
<ellipse fill="#ba8a6e" fill-opacity="0.501961" cx="181" cy="43" rx="11" ry="11" />
<ellipse fill="#7495ac" fill-opacity="0.501961" cx="125" cy="248" rx="11" ry="11" />
<ellipse fill="#d1b500" fill-opacity="0.501961" cx="220" cy="66" rx="13" ry="13" />
<ellipse fill="#cc7608" fill-opacity="0.501961" cx="252" cy="243" rx="14" ry="14" />
<ellipse fill="#ffed2e" fill-opacity="0.501961" cx="61" cy="53" rx="18" ry="18" />
<ellipse fill="#000000" fill-opacity="0.501961" cx="156" cy="105" rx="14" ry="14" />
<ellipse fill="#ac7329" fill-opacity="0.501961" cx="141" cy="172" rx="10" ry="10" />
<ellipse fill="#2c1100" fill-opacity="0.501961" cx="164" cy="38" rx="6" ry="6" />
<ellipse fill="#d59123" fill-opacity="0.501961" cx="144" cy="217" rx="12" ry="12" />
<ellipse fill="#cb9707" fill-opacity="0.501961" cx="63" cy="26" rx="12" ry="12" />
<ellipse fill="#cb9c11" fill-opacity="0.501961" cx="67" cy="74" rx="10" ry="10" />
<ellipse fill="#ffd227" fill-opacity="0.501961" cx="83" cy="15" rx="14" ry="14" />
<ellipse fill="#442c25" fill-opacity="0.501961" cx="112" cy="18" rx="11" ry="11" />
<ellipse fill="#985e25" fill-opacity="0.501961" cx="67" cy="141" rx="12" ry="12" />
<ellipse fill="#1c0605" fill-opacity="0.501961" cx="157" cy="27" rx="5" ry="5" />
<ellipse fill="#a78a72" fill-opacity="0.501961" cx="92" cy="136" rx="16" ry="16" />
<ellipse fill="#3b2117" fill-opacity="0.501961" cx="158" cy="131" rx="19" ry="19" />
<ellipse fill="#9e9100" fill-opacity="0.501961" cx="255" cy="47" rx="23" ry="23" />
<ellipse fill="#e6ad3e" fill-opacity="0.501961" cx="153" cy="153" rx="5" ry="5" />
<ellipse fill="#a36d5e" fill-opacity="0.501961" cx="192" cy="78" rx="12" ry="12" />
<ellipse fill="#f8b10f" fill-opacity="0.501961" cx="6" cy="73" rx="15" ry="15" />
<ellipse fill="#7e440c" fill-opacity="0.501961" cx="29" cy="196" rx="15" ry="15" />
<ellipse fill="#270b07" fill-opacity="0.501961" cx="79" cy="99" rx="9" ry="9" />
<ellipse fill="#adcbd7" fill-opacity="0.501961" cx="104" cy="255" rx="21" ry="21" />
<ellipse fill="#d5ae85" fill-opacity="0.501961" cx="140" cy="18" rx="5" ry="5" />
<ellipse fill="#ba8837" fill-opacity="0.501961" cx="64" cy="199" rx="23" ry="23" />
<ellipse fill="#e5a94b" fill-opacity="0.501961" cx="48" cy="8" rx="20" ry="20" />
<ellipse fill="#d0b9aa" fill-opacity="0.501961" cx="108" cy="37" rx="5" ry="5" />
<ellipse fill="#e0935f" fill-opacity="0.501961" cx="152" cy="62" rx="5" ry="5" />
<ellipse fill="#ffcc85" fill-opacity="0.501961" cx="217" cy="155" rx="5" ry="5" />
<ellipse fill="#876b39" fill-opacity="0.501961" cx="49" cy="234" rx="11" ry="11" />
<ellipse fill="#b47c27" fill-opacity="0.501961" cx="143" cy="160" rx="11" ry="11" />
<ellipse fill="#310f02" fill-opacity="0.501961" cx="71" cy="169" rx="5" ry="5" />
<ellipse fill="#ffe060" fill-opacity="0.501961" cx="235" cy="195" rx="8" ry="8" />
<ellipse fill="#2a1711" fill-opacity="0.501961" cx="56" cy="177" rx="5" ry="5" />
<ellipse fill="#7f4b2d" fill-opacity="0.501961" cx="201" cy="164" rx="15" ry="15" />
<ellipse fill="#926851" fill-opacity="0.501961" cx="120" cy="137" rx="11" ry="11" />
<ellipse fill="#b87b42" fill-opacity="0.501961" cx="193" cy="232" rx="13" ry="13" />
<ellipse fill="#c2713d" fill-opacity="0.501961" cx="134" cy="93" rx="9" ry="9" />
<ellipse fill="#cec800" fill-opacity="0.501961" cx="0" cy="222" rx="14" ry="14" />
<ellipse fill="#383600" fill-opacity="0.501961" cx="22" cy="142" rx="6" ry="6" />
<ellipse fill="#ffff4e" fill-opacity="0.501961" cx="109" cy="0" rx="6" ry="6" />
<ellipse fill="#9e754a" fill-opacity="0.501961" cx="213" cy="123" rx="15" ry="15" />
<ellipse fill="#e5eae8" fill-opacity="0.501961" cx="100" cy="156" rx="9" ry="9" />
<ellipse fill="#fbff4d" fill-opacity="0.501961" cx="193" cy="24" rx="11" ry="11" />
<ellipse fill="#8a4b01" fill-opacity="0.501961" cx="87" cy="163" rx="5" ry="5" />
<ellipse fill="#7d97a4" fill-opacity="0.501961" cx="127" cy="230" rx="10" ry="10" />
<ellipse fill="#e8a030" fill-opacity="0.501961" cx="138" cy="143" rx="5" ry="5" />
<ellipse fill="#fffed6" fill-opacity="0.501961" cx="110" cy="60" rx="5" ry="5" />
<ellipse fill="#664b3d" fill-opacity="0.501961" cx="114" cy="48" rx="9" ry="9" />
<ellipse fill="#ffd65a" fill-opacity="0.501961" cx="225" cy="178" rx="8" ry="8" />
<ellipse fill="#1b3144" fill-opacity="0.501961" cx="55" cy="237" rx="6" ry="6" />
<ellipse fill="#4e594c" fill-opacity="0.501961" cx="239" cy="178" rx="5" ry="5" />
<ellipse fill="#42601b" fill-opacity="0.501961" cx="255" cy="202" rx="5" ry="5" />
<ellipse fill="#ffff00" fill-opacity="0.501961" cx="168" cy="0" rx="5" ry="5" />
<ellipse fill="#44271d" fill-opacity="0.501961" cx="185" cy="124" rx="15" ry="15" />
<ellipse fill="#87acc4" fill-opacity="0.501961" cx="127" cy="162" rx="8" ry="8" />
<ellipse fill="#3f1600" fill-opacity="0.501961" cx="34" cy="249" rx="9" ry="9" />
<ellipse fill="#7f4e05" fill-opacity="0.501961" cx="220" cy="238" rx="13" ry="13" />
<ellipse fill="#c7b0a9" fill-opacity="0.501961" cx="99" cy="47" rx="7" ry="7" />
<ellipse fill="#190506" fill-opacity="0.501961" cx="80" cy="84" rx="6" ry="6" />
<ellipse fill="#5e5708" fill-opacity="0.501961" cx="224" cy="129" rx="7" ry="7" />
<ellipse fill="#424608" fill-opacity="0.501961" cx="251" cy="94" rx="16" ry="16" />
<ellipse fill="#816200" fill-opacity="0.501961" cx="33" cy="131" rx="10" ry="10" />
<ellipse fill="#b8a86e" fill-opacity="0.501961" cx="216" cy="254" rx="9" ry="9" />
<ellipse fill="#6d7200" fill-opacity="0.501961" cx="219" cy="84" rx="10" ry="10" />
<ellipse fill="#664330" fill-opacity="0.501961" cx="175" cy="228" rx="18" ry="18" />
<ellipse fill="#dac605" fill-opacity="0.501961" cx="219" cy="16" rx="12" ry="12" />
<ellipse fill="#a7785e" fill-opacity="0.501961" cx="175" cy="32" rx="10" ry="10" />
<ellipse fill="#dcae58" fill-opacity="0.501961" cx="32" cy="151" rx="9" ry="9" />
<ellipse fill="#cf9438" fill-opacity="0.501961" cx="65" cy="158" rx="10" ry="10" />
<ellipse fill="#f2da00" fill-opacity="0.501961" cx="49" cy="123" rx="10" ry="10" />
<ellipse fill="#deb653" fill-opacity="0.501961" cx="210" cy="0" rx="11" ry="11" />
<ellipse fill="#bb8d00" fill-opacity="0.501961" cx="8" cy="129" rx="17" ry="17" />
<ellipse fill="#b7ab00" fill-opacity="0.501961" cx="226" cy="103" rx="10" ry="10" />
<ellipse fill="#ac6e4a" fill-opacity="0.501961" cx="127" cy="85" rx="9" ry="9" />
<ellipse fill="#ffe6ae" fill-opacity="0.501961" cx="126" cy="86" rx="4" ry="4" />
<ellipse fill="#a0612a" fill-opacity="0.501961" cx="209" cy="181" rx="11" ry="11" />
<ellipse fill="#bf6a00" fill-opacity="0.501961" cx="229" cy="224" rx="12" ry="12" />
<ellipse fill="#824b29" fill-opacity="0.501961" cx="139" cy="59" rx="6" ry="6" />
<ellipse fill="#5f7146" fill-opacity="0.501961" cx="244" cy="186" rx="5" ry="5" />
<ellipse fill="#453631" fill-opacity="0.501961" cx="125" cy="9" rx="11" ry="11" />
<ellipse fill="#e1ac51" fill-opacity="0.501961" cx="47" cy="170" rx="6" ry="6" />
<ellipse fill="#d49e69" fill-opacity="0.501961" cx="213" cy="145" rx="6" ry="6" />
<ellipse fill="#9b591a" fill-opacity="0.501961" cx="185" cy="249" rx="12" ry="12" />
<ellipse fill="#df9c30" fill-opacity="0.501961" cx="150" cy="251" rx="12" ry="12" />
<ellipse fill="#d7b59e" fill-opacity="0.501961" cx="116" cy="32" rx="7" ry="7" />
<ellipse fill="#150400" fill-opacity="0.501961" cx="153" cy="21" rx="4" ry="4" />
<ellipse fill="#5d3f2e" fill-opacity="0.501961" cx="170" cy="201" rx="17" ry="17" />
<ellipse fill="#aa7223" fill-opacity="0.501961" cx="80" cy="183" rx="14" ry="14" />
<ellipse fill="#f4cbaa" fill-opacity="0.501961" cx="111" cy="58" rx="8" ry="8" />
<ellipse fill="#5e4700" fill-opacity="0.501961" cx="12" cy="147" rx="6" ry="6" />
<ellipse fill="#905b17" fill-opacity="0.501961" cx="25" cy="172" rx="14" ry="14" />
<ellipse fill="#455416" fill-opacity="0.501961" cx="3" cy="177" rx="11" ry="11" />
<ellipse fill="#fff4d4" fill-opacity="0.501961" cx="137" cy="78" rx="5" ry="5" />
<ellipse fill="#a77326" fill-opacity="0.501961" cx="74" cy="238" rx="12" ry="12" />
<ellipse fill="#e0c600" fill-opacity="0.501961" cx="74" cy="30" rx="11" ry="11" />
<ellipse fill="#682a00" fill-opacity="0.501961" cx="80" cy="171" rx="6" ry="6" />
<ellipse fill="#210e08" fill-opacity="0.501961" cx="178" cy="102" rx="15" ry="15" />
<ellipse fill="#b5ced4" fill-opacity="0.501961" cx="107" cy="225" rx="20" ry="20" />
<ellipse fill="#e2c1b4" fill-opacity="0.501961" cx="110" cy="90" rx="6" ry="6" />
<ellipse fill="#c9e4f1" fill-opacity="0.501961" cx="84" cy="155" rx="5" ry="5" />
<ellipse fill="#000000" fill-opacity="0.501961" cx="100" cy="77" rx="2" ry="2" />
<ellipse fill="#a67750" fill-opacity="0.501961" cx="205" cy="102" rx="14" ry="14" />
<ellipse fill="#6f7002" fill-opacity="0.501961" cx="242" cy="23" rx="9" ry="9" />
<ellipse fill="#9a6c53" fill-opacity="0.501961" cx="169" cy="20" rx="10" ry="10" />
<ellipse fill="#9a651d" fill-opacity="0.501961" cx="49" cy="221" rx="12" ry="12" />
<ellipse fill="#ffe1ac" fill-opacity="0.501961" cx="107" cy="105" rx="5" ry="5" />
<ellipse fill="#cd9333" fill-opacity="0.501961" cx="146" cy="232" rx="13" ry="13" />
<ellipse fill="#7d6e00" fill-opacity="0.501961" cx="251" cy="122" rx="10" ry="10" />
<ellipse fill="#492d20" fill-opacity="0.501961" cx="153" cy="138" rx="12" ry="12" />
<ellipse fill="#b8644f" fill-opacity="0.501961" cx="110" cy="96" rx="6" ry="6" />
<ellipse fill="#c4a482" fill-opacity="0.501961" cx="105" cy="144" rx="9" ry="9" />
<ellipse fill="#bfd5de" fill-opacity="0.501961" cx="112" cy="183" rx="20" ry="20" />
<ellipse fill="#e1a168" fill-opacity="0.501961" cx="129" cy="99" rx="7" ry="7" />
<ellipse fill="#f8ff58" fill-opacity="0.501961" cx="198" cy="49" rx="6" ry="6" />
<ellipse fill="#9d7259" fill-opacity="0.501961" cx="184" cy="53" rx="10" ry="10" />
<ellipse fill="#202400" fill-opacity="0.501961" cx="247" cy="139" rx="11" ry="11" />
<ellipse fill="#eaa63c" fill-opacity="0.501961" cx="16" cy="58" rx="10" ry="10" />
<ellipse fill="#faca4f" fill-opacity="0.501961" cx="201" cy="240" rx="6" ry="6" />
<ellipse fill="#ffe167" fill-opacity="0.501961" cx="96" cy="4" rx="11" ry="11" />
<ellipse fill="#534320" fill-opacity="0.501961" cx="228" cy="148" rx="9" ry="9" />
<ellipse fill="#675e02" fill-opacity="0.501961" cx="0" cy="101" rx="9" ry="9" />
<ellipse fill="#825235" fill-opacity="0.501961" cx="100" cy="70" rx="5" ry="5" />
<ellipse fill="#834806" fill-opacity="0.501961" cx="66" cy="255" rx="11" ry="11" />
<ellipse fill="#75513d" fill-opacity="0.501961" cx="144" cy="67" rx="7" ry="7" />
<ellipse fill="#ffe126" fill-opacity="0.501961" cx="54" cy="114" rx="9" ry="9" />
<ellipse fill="#ffd353" fill-opacity="0.501961" cx="27" cy="70" rx="12" ry="12" />
<ellipse fill="#fdff3c" fill-opacity="0.501961" cx="196" cy="39" rx="7" ry="7" />
<ellipse fill="#cac67a" fill-opacity="0.501961" cx="255" cy="185" rx="9" ry="9" />
<ellipse fill="#2e0500" fill-opacity="0.501961" cx="48" cy="178" rx="3" ry="3" />
<ellipse fill="#934c1f" fill-opacity="0.501961" cx="120" cy="111" rx="5" ry="5" />
<ellipse fill="#392413" fill-opacity="0.501961" cx="188" cy="179" rx="12" ry="12" />
<ellipse fill="#bb8937" fill-opacity="0.501961" cx="141" cy="183" rx="9" ry="9" />
<ellipse fill="#976b44" fill-opacity="0.501961" cx="157" cy="5" rx="8" ry="8" />
<ellipse fill="#402321" fill-opacity="0.501961" cx="83" cy="59" rx="6" ry="6" />
<ellipse fill="#7a8a92" fill-opacity="0.501961" cx="243" cy="164" rx="10" ry="10" />
<ellipse fill="#714524" fill-opacity="0.501961" cx="178" cy="130" rx="8" ry="8" />
<ellipse fill="#3b2f35" fill-opacity="0.501961" cx="103" cy="19" rx="5" ry="5" />
<ellipse fill="#200c04" fill-opacity="0.501961" cx="160" cy="32" rx="4" ry="4" />
<ellipse fill="#393701" fill-opacity="0.501961" cx="0" cy="156" rx="10" ry="10" />
<ellipse fill="#645f00" fill-opacity="0.501961" cx="242" cy="5" rx="6" ry="6" />
<ellipse fill="#ffcc49" fill-opacity="0.501961" cx="71" cy="0" rx="19" ry="19" />
<ellipse fill="#83634c" fill-opacity="0.501961" cx="93" cy="109" rx="7" ry="7" />
<ellipse fill="#dda471" fill-opacity="0.501961" cx="132" cy="52" rx="7" ry="7" />
<ellipse fill="#5a3e45" fill-opacity="0.501961" cx="76" cy="136" rx="5" ry="5" />
<ellipse fill="#fef95b" fill-opacity="0.501961" cx="66" cy="53" rx="9" ry="9" />
<ellipse fill="#11030e" fill-opacity="0.501961" cx="80" cy="76" rx="4" ry="4" />
<ellipse fill="#673822" fill-opacity="0.501961" cx="66" cy="118" rx="4" ry="4" />
<ellipse fill="#b0939f" fill-opacity="0.501961" cx="94" cy="58" rx="6" ry="6" />
<ellipse fill="#37281a" fill-opacity="0.501961" cx="146" cy="14" rx="5" ry="5" />
<ellipse fill="#b68656" fill-opacity="0.501961" cx="212" cy="134" rx="8" ry="8" />
<ellipse fill="#e1c200" fill-opacity="0.501961" cx="66" cy="86" rx="8" ry="8" />
<ellipse fill="#c08e00" fill-opacity="0.501961" cx="35" cy="122" rx="10" ry="10" />
<ellipse fill="#f4ba40" fill-opacity="0.501961" cx="18" cy="13" rx="10" ry="10" />
<ellipse fill="#a67d56" fill-opacity="0.501961" cx="198" cy="87" rx="11" ry="11" />
<ellipse fill="#b27e2f" fill-opacity="0.501961" cx="143" cy="162" rx="10" ry="10" />
<ellipse fill="#bb883e" fill-opacity="0.501961" cx="52" cy="161" rx="13" ry="13" />
<ellipse fill="#c59644" fill-opacity="0.501961" cx="64" cy="198" rx="13" ry="13" />
<ellipse fill="#b99a93" fill-opacity="0.501961" cx="95" cy="89" rx="8" ry="8" />
<ellipse fill="#2b2c00" fill-opacity="0.501961" cx="30" cy="138" rx="4" ry="4" />
<ellipse fill="#77420b" fill-opacity="0.501961" cx="23" cy="241" rx="11" ry="11" />
<ellipse fill="#cf997b" fill-opacity="0.501961" cx="139" cy="69" rx="4" ry="4" />
<ellipse fill="#6b3e2f" fill-opacity="0.501961" cx="134" cy="90" rx="4" ry="4" />
<ellipse fill="#ecd5c4" fill-opacity="0.501961" cx="114" cy="92" rx="5" ry="5" />
<ellipse fill="#190000" fill-opacity="0.501961" cx="125" cy="92" rx="2" ry="2" />
<ellipse fill="#c69800" fill-opacity="0.501961" cx="14" cy="87" rx="8" ry="8" />
<ellipse fill="#777700" fill-opacity="0.501961" cx="245" cy="63" rx="15" ry="15" />
<ellipse fill="#a48f00" fill-opacity="0.501961" cx="209" cy="75" rx="6" ry="6" />
<ellipse fill="#ffcb96" fill-opacity="0.501961" cx="121" cy="84" rx="3" ry="3" />
<ellipse fill="#6d3907" fill-opacity="0.501961" cx="26" cy="218" rx="11" ry="11" />
<ellipse fill="#92b3c6" fill-opacity="0.501961" cx="126" cy="209" rx="7" ry="7" />
<ellipse fill="#efe100" fill-opacity="0.501961" cx="212" cy="60" rx="13" ry="13" />
<ellipse fill="#f7d516" fill-opacity="0.501961" cx="52" cy="65" rx="12" ry="12" />
<ellipse fill="#8b562d" fill-opacity="0.501961" cx="205" cy="198" rx="11" ry="11" />
<ellipse fill="#b0d4e7" fill-opacity="0.501961" cx="128" cy="150" rx="5" ry="5" />
<ellipse fill="#7d6600" fill-opacity="0.501961" cx="0" cy="117" rx="7" ry="7" />
<ellipse fill="#f6c07b" fill-opacity="0.501961" cx="152" cy="54" rx="6" ry="6" />
<ellipse fill="#a49c00" fill-opacity="0.501961" cx="229" cy="25" rx="10" ry="10" />
<ellipse fill="#f5c244" fill-opacity="0.501961" cx="204" cy="253" rx="7" ry="7" />
<ellipse fill="#976847" fill-opacity="0.501961" cx="203" cy="216" rx="9" ry="9" />
<ellipse fill="#ffc996" fill-opacity="0.501961" cx="145" cy="77" rx="6" ry="6" />
<ellipse fill="#feca85" fill-opacity="0.501961" cx="117" cy="104" rx="5" ry="5" />
<ellipse fill="#0b0200" fill-opacity="0.501961" cx="134" cy="113" rx="7" ry="7" />
<ellipse fill="#b29500" fill-opacity="0.501961" cx="228" cy="0" rx="13" ry="13" />
</g>
</svg>